<svg width="14" height="16" viewBox="0 0 14 16" fill="none" xmlns="http://www.w3.org/2000/svg">
<path fill-rule="evenodd" clip-rule="evenodd" d="M10.4307 0.597815L10.4315 1.18086C12.574 1.34877 13.9892 2.80871 13.9915 5.04759L14 11.601C14.0031 14.042 12.4695 15.5439 10.0114 15.5478L4.00702 15.5555C1.56426 15.5587 0.011524 14.021 0.00845231 11.573L5.17203e-06 5.09656C-0.00306652 2.84291 1.3623 1.38686 3.5048 1.19019L3.50403 0.607144C3.50326 0.265093 3.75668 0.00777741 4.09456 0.00777741C4.43245 0.00700002 4.68586 0.263538 4.68663 0.605589L4.6874 1.14976L9.24886 1.14354L9.24809 0.59937C9.24732 0.257319 9.50073 0.000780916 9.83862 3.52776e-06C10.1688 -0.000773861 10.4299 0.255764 10.4307 0.597815ZM1.18336 5.33676L12.8097 5.32121V5.04912C12.7767 3.37774 11.9381 2.50084 10.433 2.37024L10.4337 2.96883C10.4337 3.30311 10.1734 3.5682 9.84321 3.5682C9.50532 3.56897 9.25114 3.30466 9.25114 2.97038L9.25037 2.3407L4.68892 2.34692L4.68969 2.97583C4.68969 3.31088 4.43704 3.57519 4.09915 3.57519C3.76127 3.57597 3.50709 3.31244 3.50709 2.97738L3.50632 2.37879C2.00887 2.52883 1.18028 3.40883 1.18259 5.09499L1.18336 5.33676ZM9.51992 8.87002V8.87857C9.5276 9.23617 9.81941 9.50748 10.1734 9.4997C10.519 9.49115 10.7947 9.19497 10.787 8.83737C10.7709 8.49532 10.4936 8.21624 10.1489 8.21701C9.79561 8.22479 9.51915 8.51242 9.51992 8.87002ZM10.1542 12.3605C9.80099 12.3527 9.51609 12.0581 9.51532 11.7005C9.50764 11.3429 9.791 11.0467 10.1442 11.0381H10.1519C10.5129 11.0381 10.8054 11.3327 10.8054 11.6981C10.8062 12.0635 10.5144 12.3597 10.1542 12.3605ZM6.35609 8.8825C6.37144 9.2401 6.66402 9.51918 7.01727 9.50363C7.36283 9.48731 7.63851 9.1919 7.62316 8.8343C7.61471 8.48448 7.33058 8.21239 6.98501 8.21317C6.63177 8.22872 6.35532 8.5249 6.35609 8.8825ZM7.02034 12.3255C6.66709 12.3411 6.37528 12.062 6.35915 11.7044C6.35915 11.3468 6.63484 11.0514 6.98808 11.0351C7.33365 11.0343 7.61855 11.3064 7.62623 11.6554C7.64235 12.0138 7.3659 12.3092 7.02034 12.3255ZM3.19225 8.90968C3.20761 9.26728 3.50018 9.54714 3.85343 9.53082C4.19899 9.51527 4.47468 9.21908 4.45855 8.86149C4.45087 8.51166 4.16674 8.23957 3.82041 8.24035C3.46716 8.2559 3.19148 8.55208 3.19225 8.90968ZM3.8565 12.3294C3.50325 12.3457 3.21144 12.0659 3.19532 11.7083C3.19455 11.3507 3.471 11.0545 3.82424 11.0389C4.16981 11.0382 4.45471 11.3103 4.46239 11.6601C4.47851 12.0177 4.20283 12.3139 3.8565 12.3294Z" fill="#9A9A9A"/>
</svg>
