<svg width="16" height="16" viewBox="0 0 16 16" fill="none" xmlns="http://www.w3.org/2000/svg">
<g clip-path="url(#clip0_606_256)">
<mask id="mask0_606_256" style="mask-type:luminance" maskUnits="userSpaceOnUse" x="0" y="0" width="16" height="16">
<path d="M16 0H0V16H16V0Z" fill="white"/>
</mask>
<g mask="url(#mask0_606_256)">
<path d="M15.5423 2.1881C15.307 1.95232 14.925 1.95191 14.6897 2.1871L7.45552 9.40213L4.84546 6.56739C4.61993 6.32257 4.23862 6.3067 3.9934 6.53219C3.74837 6.75772 3.73268 7.13923 3.95821 7.38426L6.9934 10.6805C7.10455 10.8013 7.26011 10.8715 7.42414 10.8749C7.42855 10.8751 7.4328 10.8751 7.43702 10.8751C7.59643 10.8751 7.74978 10.8118 7.86274 10.6992L15.5411 3.04094C15.7771 2.80578 15.7775 2.42388 15.5423 2.1881Z" fill="#A41034"/>
<path d="M15.397 7.39697C15.0639 7.39697 14.794 7.6669 14.794 8C14.794 11.7463 11.7463 14.794 8 14.794C4.25387 14.794 1.20603 11.7463 1.20603 8C1.20603 4.25387 4.25387 1.20603 8 1.20603C8.33304 1.20603 8.60304 0.936096 8.60304 0.603031C8.60304 0.269938 8.33304 0 8 0C3.58875 0 0 3.58875 0 8C0 12.411 3.58875 16 8 16C12.411 16 16 12.411 16 8C16 7.66694 15.7301 7.39697 15.397 7.39697Z" fill="#A41034"/>
</g>
</g>
<defs>
<clipPath id="clip0_606_256">
<rect width="16" height="16" fill="white"/>
</clipPath>
</defs>
</svg>
