<svg width="40" height="40" viewBox="0 0 40 40" fill="none" xmlns="http://www.w3.org/2000/svg">
<path d="M22.54 16.484C22.4934 16.4376 22.4565 16.3824 22.4313 16.3217C22.4061 16.2609 22.3931 16.1958 22.3931 16.13C22.3931 16.0642 22.4061 15.9991 22.4313 15.9384C22.4565 15.8776 22.4934 15.8225 22.54 15.776C22.697 15.6173 22.8839 15.4914 23.0898 15.4054C23.2958 15.3194 23.5168 15.2752 23.74 15.2752C23.9632 15.2752 24.1842 15.3194 24.3902 15.4054C24.5961 15.4914 24.783 15.6173 24.94 15.776C24.9866 15.8225 25.0235 15.8776 25.0487 15.9384C25.0739 15.9991 25.0869 16.0642 25.0869 16.13C25.0869 16.1958 25.0739 16.2609 25.0487 16.3217C25.0235 16.3824 24.9866 16.4376 24.94 16.484C24.8452 16.5761 24.7182 16.6277 24.586 16.6277C24.4538 16.6277 24.3268 16.5761 24.232 16.484C24.1681 16.4197 24.092 16.3686 24.0083 16.3338C23.9245 16.2989 23.8347 16.281 23.744 16.281C23.6533 16.281 23.5635 16.2989 23.4797 16.3338C23.396 16.3686 23.3199 16.4197 23.256 16.484C23.1619 16.5759 23.0355 16.6273 22.904 16.6273C22.7725 16.6273 22.6461 16.5759 22.552 16.484H22.54ZM15.78 16.484C15.8437 16.4192 15.9196 16.3677 16.0034 16.3326C16.0872 16.2974 16.1771 16.2793 16.268 16.2793C16.3589 16.2793 16.4488 16.2974 16.5326 16.3326C16.6164 16.3677 16.6923 16.4192 16.756 16.484C16.8515 16.5689 16.9759 16.614 17.1036 16.6101C17.2313 16.6062 17.3527 16.5535 17.4427 16.4629C17.5328 16.3723 17.5848 16.2506 17.588 16.1229C17.5912 15.9951 17.5454 15.871 17.46 15.776C17.303 15.6173 17.1161 15.4914 16.9102 15.4054C16.7042 15.3194 16.4832 15.2752 16.26 15.2752C16.0368 15.2752 15.8158 15.3194 15.6098 15.4054C15.4039 15.4914 15.217 15.6173 15.06 15.776C15.0134 15.8225 14.9765 15.8776 14.9513 15.9384C14.9261 15.9991 14.9131 16.0642 14.9131 16.13C14.9131 16.1958 14.9261 16.2609 14.9513 16.3217C14.9765 16.3824 15.0134 16.4376 15.06 16.484C15.1072 16.5314 15.1633 16.569 15.2251 16.5947C15.2869 16.6204 15.3531 16.6336 15.42 16.6336C15.4869 16.6336 15.5531 16.6204 15.6149 16.5947C15.6767 16.569 15.7328 16.5314 15.78 16.484ZM20 19.2C20.0657 19.2 20.1307 19.1871 20.1913 19.162C20.252 19.1368 20.3071 19.1 20.3536 19.0536C20.4 19.0071 20.4368 18.952 20.4619 18.8914C20.4871 18.8307 20.5 18.7657 20.5 18.7V17.1C20.5 16.9674 20.4473 16.8402 20.3536 16.7465C20.2598 16.6527 20.1326 16.6 20 16.6C19.8674 16.6 19.7402 16.6527 19.6464 16.7465C19.5527 16.8402 19.5 16.9674 19.5 17.1V18.7C19.5 18.7657 19.5129 18.8307 19.5381 18.8914C19.5632 18.952 19.6 19.0071 19.6464 19.0536C19.6929 19.1 19.748 19.1368 19.8087 19.162C19.8693 19.1871 19.9343 19.2 20 19.2ZM20 21.86C20.4171 21.8609 20.8302 21.7789 21.2154 21.6189C21.6006 21.459 21.9502 21.2241 22.244 20.928C22.3374 20.8347 22.3898 20.708 22.3898 20.576C22.3898 20.444 22.3374 20.3174 22.244 20.224C22.1506 20.1307 22.024 20.0782 21.892 20.0782C21.76 20.0782 21.6334 20.1307 21.54 20.224C21.1308 20.631 20.5771 20.8594 20 20.8594C19.4229 20.8594 18.8692 20.631 18.46 20.224C18.3666 20.1307 18.24 20.0782 18.108 20.0782C17.976 20.0782 17.8494 20.1307 17.756 20.224C17.6626 20.3174 17.6102 20.444 17.6102 20.576C17.6102 20.708 17.6626 20.8347 17.756 20.928C18.0491 21.2256 18.3984 21.4619 18.7837 21.6233C19.1689 21.7846 19.5823 21.8678 20 21.868V21.86ZM37.796 24.304C37.8559 24.3518 37.904 24.4128 37.9366 24.4821C37.9692 24.5515 37.9854 24.6274 37.984 24.704V35.856C37.9836 35.9709 37.9436 36.0822 37.8707 36.1711C37.7978 36.26 37.6966 36.321 37.584 36.344L30.4 38C30.3628 38.0041 30.3252 38.0041 30.288 38H5.264C4.61253 37.9979 3.98823 37.7387 3.52682 37.2788C3.06542 36.8189 2.80421 36.1955 2.8 35.544V23.248C2.28483 22.5963 2.00314 21.7907 2 20.96V18.264C2 17.9086 2.14118 17.5678 2.39248 17.3165C2.64378 17.0652 2.98461 16.924 3.34 16.924H6.044V14.86C6.03987 14.478 6.17605 14.1078 6.42672 13.8195C6.6774 13.5312 7.02513 13.345 7.404 13.296C7.61603 13.2718 7.83079 13.2926 8.03422 13.3571C8.23765 13.4216 8.42517 13.5284 8.58451 13.6703C8.74385 13.8123 8.87142 13.9863 8.95887 14.181C9.04632 14.3757 9.09169 14.5866 9.092 14.8V21.088C9.09388 21.8919 8.81839 22.6717 8.312 23.296V28.8C9.05845 27.7312 10.0953 26.8984 11.3 26.4V18.612C10.8733 18.3124 10.5251 17.9144 10.2846 17.4518C10.0442 16.9891 9.91869 16.4754 9.91869 15.954C9.91869 15.4326 10.0442 14.9189 10.2846 14.4563C10.5251 13.9936 10.8733 13.5957 11.3 13.296V10.72C11.3488 8.44019 12.2888 6.27021 13.9184 4.67512C15.548 3.08003 17.7377 2.18677 20.018 2.18677C22.2983 2.18677 24.488 3.08003 26.1176 4.67512C27.7472 6.27021 28.6872 8.44019 28.736 10.72V13.296C29.1627 13.5957 29.5109 13.9936 29.7514 14.4563C29.9918 14.9189 30.1173 15.4326 30.1173 15.954C30.1173 16.4754 29.9918 16.9891 29.7514 17.4518C29.5109 17.9144 29.1627 18.3124 28.736 18.612V26.072C28.9477 26.2083 29.1367 26.377 29.296 26.572C29.6594 26.1307 30.1612 25.8248 30.72 25.704L37.376 24.216C37.4487 24.1985 37.5244 24.1981 37.5973 24.2147C37.6701 24.2314 37.7382 24.2647 37.796 24.312V24.304ZM29.796 27.86H30.196L36.96 26.304V25.328L30.94 26.68C30.6475 26.7282 30.3786 26.8701 30.1737 27.0844C29.9688 27.2986 29.8391 27.5736 29.804 27.868L29.796 27.86ZM23.92 37.016L20.996 36.344C20.8834 36.321 20.7822 36.26 20.7093 36.1711C20.6364 36.0822 20.5964 35.9709 20.596 35.856V30.092H18.748L20.272 37.016H23.92ZM23.556 13.56C23.1148 13.6147 22.6983 13.7941 22.3556 14.0772C22.0128 14.3603 21.7579 14.7354 21.6209 15.1583C21.4839 15.5813 21.4704 16.0346 21.582 16.4649C21.6937 16.8952 21.9258 17.2848 22.2511 17.5878C22.5765 17.8908 22.9815 18.0946 23.4187 18.1754C23.8559 18.2562 24.3071 18.2105 24.7192 18.0438C25.1313 17.8771 25.4874 17.5962 25.7454 17.2342C26.0035 16.8722 26.1528 16.444 26.176 16V15.716C26.147 15.2448 25.9759 14.7935 25.6853 14.4215C25.3947 14.0494 24.9982 13.7742 24.548 13.632C24.2 13.624 23.868 13.6 23.556 13.56ZM21.796 13.248C19.58 12.712 18.524 11.804 18.028 11.096C17.528 11.6822 16.9247 12.1716 16.248 12.54C17.0351 12.5555 17.7915 12.8486 18.3835 13.3675C18.9756 13.8864 19.3654 14.5977 19.484 15.376H20.552C20.6798 14.5339 21.1249 13.7725 21.796 13.248ZM13.86 16C13.8969 16.6061 14.1684 17.1741 14.6169 17.5834C15.0654 17.9928 15.6557 18.2114 16.2627 18.1929C16.8697 18.1745 17.4456 17.9204 17.8684 17.4845C18.2912 17.0486 18.5277 16.4653 18.5277 15.858C18.5277 15.2508 18.2912 14.6674 17.8684 14.2315C17.4456 13.7957 16.8697 13.5416 16.2627 13.5231C15.6557 13.5046 15.0654 13.7232 14.6169 14.1326C14.1684 14.542 13.8969 15.1099 13.86 15.716V16ZM13.86 18.252C13.9009 19.8549 14.5664 21.3784 15.7145 22.4976C16.8626 23.6168 18.4026 24.2432 20.006 24.2432C21.6094 24.2432 23.1494 23.6168 24.2975 22.4976C25.4456 21.3784 26.1111 19.8549 26.152 18.252C25.7128 18.6756 25.1657 18.9702 24.5704 19.1038C23.9751 19.2374 23.3545 19.2048 22.7765 19.0095C22.1984 18.8142 21.6852 18.4638 21.2929 17.9965C20.9006 17.5292 20.6443 16.9631 20.552 16.36H19.484C19.3917 16.9631 19.1354 17.5292 18.7431 17.9965C18.3508 18.4638 17.8376 18.8142 17.2595 19.0095C16.6815 19.2048 16.0609 19.2374 15.4656 19.1038C14.8703 18.9702 14.3232 18.6756 13.884 18.252H13.86ZM27.64 26.652L21.6 25.328V26.312L28.364 27.868H28.764C28.742 27.6457 28.6626 27.433 28.5336 27.2506C28.4046 27.0683 28.2303 26.9227 28.028 26.828H28C27.8893 26.7671 27.7727 26.7175 27.652 26.68L27.64 26.652ZM21.6 35.46L27.808 36.888V28.768L21.6 27.336V35.46ZM17.916 24.888V26.272L18.532 29.072H20.612V25.152C20.4 25.2 20.216 25.2 20 25.2C19.2937 25.1994 18.5915 25.0943 17.916 24.888ZM27.736 19.088C27.5191 19.149 27.2967 19.1878 27.072 19.204C26.878 20.3777 26.3951 21.4846 25.6668 22.4252C24.9385 23.3657 23.9877 24.1104 22.9 24.592L27.736 25.672V19.088ZM29.116 15.956C29.1149 15.4125 28.9183 14.8875 28.5621 14.477C28.2059 14.0665 27.7139 13.7978 27.176 13.72V18.176C27.7112 18.0986 28.201 17.8323 28.5569 17.4251C28.9127 17.0179 29.1111 16.4968 29.116 15.956ZM12.316 12.82C12.6021 12.738 12.8983 12.6962 13.196 12.696C13.2173 12.6938 13.2387 12.6938 13.26 12.696C13.384 12.664 16.86 11.732 17.66 9.84402C17.7027 9.74307 17.7774 9.65895 17.8726 9.60461C17.9678 9.55027 18.0782 9.52871 18.1868 9.54326C18.2955 9.5578 18.3963 9.60765 18.4739 9.68512C18.5514 9.76259 18.6014 9.86339 18.616 9.97202C18.616 9.97202 19.016 11.972 23.576 12.54H23.884C24.1826 12.5412 24.4798 12.5815 24.768 12.66C25.356 12.696 26 12.708 26.704 12.696C26.736 12.6941 26.768 12.6941 26.8 12.696C26.8306 12.6941 26.8614 12.6941 26.892 12.696C27.1897 12.6962 27.4859 12.738 27.772 12.82V10.72C27.7261 8.7035 26.8928 6.78503 25.4504 5.37509C24.008 3.96515 22.071 3.17573 20.054 3.17573C18.037 3.17573 16.1 3.96515 14.6576 5.37509C13.2152 6.78503 12.3819 8.7035 12.336 10.72L12.316 12.82ZM10.92 15.956C10.9215 16.5003 11.1194 17.0257 11.4773 17.4357C11.8351 17.8458 12.329 18.1129 12.868 18.188V13.716C12.3276 13.7913 11.8327 14.0596 11.4747 14.4713C11.1166 14.8831 10.9196 15.4104 10.92 15.956ZM12.3 26.084C12.9075 25.9362 13.5307 25.8623 14.156 25.864H16.916V24.488C15.8819 23.9876 14.9832 23.246 14.2954 22.3258C13.6077 21.4055 13.1511 20.3335 12.964 19.2C12.7393 19.1842 12.5168 19.1453 12.3 19.084V26.084ZM5.476 23.624C5.81556 23.6342 6.15371 23.5761 6.47044 23.4533C6.78717 23.3305 7.07604 23.1453 7.31995 22.9089C7.56387 22.6724 7.75787 22.3894 7.89048 22.0767C8.02309 21.7639 8.09162 21.4277 8.092 21.088V20.508H5.628C5.51555 20.508 5.4077 20.5527 5.32819 20.6322C5.24867 20.7117 5.204 20.8196 5.204 20.932C5.204 21.0445 5.24867 21.1523 5.32819 21.2318C5.4077 21.3113 5.51555 21.356 5.628 21.356H6.368C6.50061 21.356 6.62778 21.4087 6.72155 21.5025C6.81532 21.5962 6.868 21.7234 6.868 21.856C6.868 21.9886 6.81532 22.1158 6.72155 22.2096C6.62778 22.3033 6.50061 22.356 6.368 22.356H5.628C5.25103 22.355 4.88985 22.2045 4.62366 21.9375C4.35748 21.6706 4.208 21.309 4.208 20.932C4.20925 20.7962 4.23082 20.6614 4.272 20.532H3.016V20.96C3.00538 21.635 3.25494 22.2883 3.71294 22.7843C4.17095 23.2802 4.80227 23.5809 5.476 23.624ZM7.076 17.424V18.7C7.07302 18.9823 6.99428 19.2586 6.848 19.5H8.108V14.8C8.11077 14.7248 8.09678 14.6498 8.06703 14.5807C8.03728 14.5115 7.99253 14.4498 7.936 14.4C7.88222 14.3513 7.81885 14.3144 7.74996 14.2917C7.68108 14.269 7.60819 14.2609 7.536 14.268C7.40368 14.2928 7.28458 14.364 7.20022 14.4689C7.11585 14.5738 7.07179 14.7055 7.076 14.84V17.424ZM3.016 18.264V19.524H4.888C5.52 19.524 6.06 19.148 6.06 18.7V17.924H3.356C3.26583 17.924 3.17935 17.9598 3.11558 18.0236C3.05182 18.0874 3.016 18.1738 3.016 18.264ZM7.816 37.016H11.132V30.8C11.132 30.6674 11.1847 30.5402 11.2784 30.4465C11.3722 30.3527 11.4994 30.3 11.632 30.3C11.7646 30.3 11.8918 30.3527 11.9856 30.4465C12.0793 30.5402 12.132 30.6674 12.132 30.8V37.016H19.248L17.016 26.864H14.156C11.528 26.864 9.468 28.232 8.352 30.72C8.33865 30.7364 8.32661 30.7538 8.316 30.772V33.924C8.316 34.0566 8.26332 34.1838 8.16955 34.2776C8.07579 34.3713 7.94861 34.424 7.816 34.424C7.68339 34.424 7.55621 34.3713 7.46245 34.2776C7.36868 34.1838 7.316 34.0566 7.316 33.924V24.152C6.78064 24.4604 6.17383 24.6231 5.556 24.624H5.444C4.86156 24.6075 4.29351 24.4393 3.796 24.136V35.544C3.796 35.9337 3.95053 36.3075 4.22572 36.5835C4.50091 36.8594 4.87429 37.015 5.264 37.016H7.816ZM29.616 37.016H29.776V28.868H28.8V30.528C28.8557 30.6049 28.8864 30.6971 28.888 30.792V37.016H29.616ZM36.984 27.336L30.776 28.768V36.888L36.984 35.46V27.336Z" fill="white"/>
</svg>
