<svg width="40" height="40" viewBox="0 0 40 40" fill="none" xmlns="http://www.w3.org/2000/svg">
<g clip-path="url(#clip0_516_112)">
<path d="M36.0902 31.102C36.8803 30.0155 37.3085 28.708 37.3142 27.3646C37.3184 27.2772 37.3053 27.1897 37.2757 27.1073C37.2462 27.0249 37.2006 26.9491 37.1418 26.8843C37.0829 26.8195 37.0118 26.7669 36.9326 26.7295C36.8534 26.6922 36.7676 26.6708 36.6802 26.6666C36.504 26.66 36.3323 26.7227 36.2018 26.8412C36.0714 26.9598 35.9925 27.1247 35.9822 27.3006C35.9872 28.3653 35.6592 29.4049 35.0442 30.274C33.7435 31.9166 31.2755 32 30.7935 32C30.6167 32 30.4471 32.0702 30.3221 32.1952C30.1971 32.3202 30.1268 32.4898 30.1268 32.6666C30.1268 32.8434 30.1971 33.013 30.3221 33.138C30.4471 33.2631 30.6167 33.3333 30.7935 33.3333C31.3828 33.3333 34.4075 33.226 36.0902 31.102ZM22.6668 22.6666C22.6668 22.4898 22.5966 22.3202 22.4716 22.1952C22.3465 22.0702 22.177 22 22.0002 22C21.8234 22 21.6538 22.0702 21.5288 22.1952C21.4037 22.3202 21.3335 22.4898 21.3335 22.6666C21.3335 23.3739 21.6144 24.0521 22.1145 24.5522C22.6146 25.0523 23.2929 25.3333 24.0002 25.3333V26C24.0002 26.1768 24.0704 26.3463 24.1954 26.4714C24.3204 26.5964 24.49 26.6666 24.6668 26.6666C24.8436 26.6666 25.0132 26.5964 25.1382 26.4714C25.2633 26.3463 25.3335 26.1768 25.3335 26V25.3333C26.0407 25.3333 26.719 25.0523 27.2191 24.5522C27.7192 24.0521 28.0002 23.3739 28.0002 22.6666C28.0002 21.9594 27.7192 21.2811 27.2191 20.781C26.719 20.2809 26.0407 20 25.3335 20V17.3333C25.6871 17.3333 26.0263 17.4738 26.2763 17.7238C26.5264 17.9739 26.6668 18.313 26.6668 18.6666C26.6668 18.8434 26.7371 19.013 26.8621 19.138C26.9871 19.2631 27.1567 19.3333 27.3335 19.3333C27.5103 19.3333 27.6799 19.2631 27.8049 19.138C27.9299 19.013 28.0002 18.8434 28.0002 18.6666C28.0002 17.9594 27.7192 17.2811 27.2191 16.781C26.719 16.2809 26.0407 16 25.3335 16V15.3333C25.3335 15.1565 25.2633 14.9869 25.1382 14.8619C25.0132 14.7369 24.8436 14.6666 24.6668 14.6666C24.49 14.6666 24.3204 14.7369 24.1954 14.8619C24.0704 14.9869 24.0002 15.1565 24.0002 15.3333V16C23.2929 16 22.6146 16.2809 22.1145 16.781C21.6144 17.2811 21.3335 17.9594 21.3335 18.6666C21.3335 19.3739 21.6144 20.0521 22.1145 20.5522C22.6146 21.0523 23.2929 21.3333 24.0002 21.3333V24C23.6465 24 23.3074 23.8595 23.0574 23.6094C22.8073 23.3594 22.6668 23.0202 22.6668 22.6666ZM22.6668 18.6666C22.6668 18.313 22.8073 17.9739 23.0574 17.7238C23.3074 17.4738 23.6465 17.3333 24.0002 17.3333V20C23.6465 20 23.3074 19.8595 23.0574 19.6094C22.8073 19.3594 22.6668 19.0202 22.6668 18.6666ZM25.3335 21.3333C25.6871 21.3333 26.0263 21.4738 26.2763 21.7238C26.5264 21.9739 26.6668 22.313 26.6668 22.6666C26.6668 23.0202 26.5264 23.3594 26.2763 23.6094C26.0263 23.8595 25.6871 24 25.3335 24V21.3333Z" fill="white"/>
<path d="M39.4427 22.514C37.8 15.5333 34.148 11.4887 31.5107 9.37601C34.818 9.62534 35.8827 11.0013 35.914 11.0427C36.0144 11.186 36.1671 11.2841 36.3391 11.3158C36.5112 11.3475 36.6889 11.3103 36.8337 11.2123C36.9786 11.1142 37.0792 10.9631 37.1136 10.7915C37.1481 10.62 37.1138 10.4418 37.018 10.2953C36.97 10.2233 36.044 8.90068 33.3513 8.29534C33.6916 8.01564 33.9674 7.66574 34.1599 7.26958C34.3524 6.87342 34.457 6.44036 34.4667 6.00001C34.4232 5.27978 34.1533 4.5917 33.6955 4.03402C33.2376 3.47634 32.6153 3.07758 31.9173 2.89468C31.976 2.41334 32.006 1.92801 32.0067 1.44334C32.0063 1.2233 31.9515 1.00676 31.8471 0.813048C31.7428 0.619333 31.5921 0.45446 31.4085 0.333134C31.2249 0.211808 31.0142 0.1378 30.7951 0.117713C30.5759 0.0976253 30.3552 0.132082 30.1527 0.218009C29.816 0.370676 29.5033 0.571342 29.2247 0.813342C29.0628 0.979724 28.8688 1.11158 28.6546 1.20095C28.4403 1.29032 28.2101 1.33536 27.978 1.33334C27.7462 1.33497 27.5165 1.28975 27.3026 1.2004C27.0887 1.11104 26.8951 0.979387 26.7333 0.813342C26.1668 0.29009 25.4239 -0.000488281 24.6527 -0.000488281C23.8815 -0.000488281 23.1386 0.29009 22.572 0.813342C22.4101 0.980074 22.216 1.11215 22.0014 1.20154C21.7869 1.29093 21.5564 1.33577 21.324 1.33334C21.0923 1.33527 20.8625 1.29018 20.6487 1.2008C20.4349 1.11142 20.2414 0.979615 20.08 0.813342C19.8019 0.571458 19.4902 0.371154 19.1547 0.218676C18.9522 0.13332 18.7318 0.0993137 18.5131 0.11968C18.2943 0.140046 18.084 0.214154 17.9008 0.335414C17.7176 0.456674 17.5672 0.621328 17.4629 0.814734C17.3587 1.00814 17.3039 1.22431 17.3033 1.44401C17.3033 3.10268 17.6313 6.06134 19.708 8.04801C18.6166 8.71164 17.5973 9.48716 16.6667 10.362V5.33334C16.6667 3.81334 14.5167 2.66668 11.6667 2.66668C8.81667 2.66668 6.66667 3.81334 6.66667 5.33334V12.05C4.32867 12.2833 2.66667 13.3333 2.66667 14.6667V31.6233C1.056 32.056 0 32.9333 0 34V37.3333C0 38.8533 2.15 40 5 40C7.54867 40 9.53333 39.082 9.92467 37.8C11.0754 38.4093 12.3652 38.708 13.6667 38.6667C16.5167 38.6667 18.6667 37.52 18.6667 36V27.3333C18.6667 25.8133 16.5167 24.6667 13.6667 24.6667C13.3333 24.6667 12.9987 24.6833 12.6667 24.7167V14.6667C12.6667 13.2067 10.682 12.0947 8 12.0087V7.17934C9.13415 7.7558 10.395 8.038 11.6667 8.00001C12.9383 8.038 14.1992 7.7558 15.3333 7.17934V11.726C14.8687 12.2444 14.4296 12.7851 14.0173 13.346C13.9214 13.4889 13.8844 13.6633 13.9141 13.8328C13.9439 14.0023 14.038 14.1538 14.1768 14.2555C14.3156 14.3572 14.4884 14.4012 14.659 14.3785C14.8295 14.3557 14.9847 14.2679 15.092 14.1333C15.52 13.5533 15.9787 12.9973 16.4667 12.4667L16.482 12.4493C17.7546 11.035 19.2491 9.83733 20.9067 8.90334C21.2333 9.06068 21.5793 9.17601 21.9353 9.24534L20.2167 10.8493C20.0874 10.9701 20.0114 11.1373 20.0054 11.314C19.9994 11.4908 20.0639 11.6628 20.1847 11.792C20.3054 11.9213 20.4726 11.9972 20.6494 12.0032C20.8262 12.0092 20.9981 11.9448 21.1273 11.824L23.794 9.33668H24.0067V11.3367C24.0067 11.5135 24.0769 11.6831 24.2019 11.8081C24.327 11.9331 24.4965 12.0033 24.6733 12.0033C24.8501 12.0033 25.0197 11.9331 25.1447 11.8081C25.2698 11.6831 25.34 11.5135 25.34 11.3367V9.33334H25.5527L28.2193 11.8207C28.2833 11.8805 28.3585 11.9271 28.4405 11.9578C28.5225 11.9886 28.6098 12.0029 28.6973 11.9999C28.7848 11.9969 28.8709 11.9768 28.9507 11.9405C29.0304 11.9043 29.1022 11.8527 29.162 11.7887C29.2218 11.7247 29.2684 11.6495 29.2992 11.5675C29.3299 11.4855 29.3442 11.3982 29.3412 11.3107C29.3383 11.2232 29.3181 11.1371 29.2818 11.0574C29.2456 10.9776 29.194 10.9058 29.13 10.846L27.4 9.23534C27.754 9.16528 28.0975 9.04988 28.422 8.89201C30.184 9.84534 35.976 13.612 38.1453 22.8193C39.0887 26.8273 38.7487 29.8933 37.1353 31.93C35.0713 34.5333 31.49 34.6667 30.7933 34.6667H21.3333C21.1565 34.6667 20.987 34.7369 20.8619 34.8619C20.7369 34.987 20.6667 35.1565 20.6667 35.3333C20.6667 35.5102 20.7369 35.6797 20.8619 35.8047C20.987 35.9298 21.1565 36 21.3333 36H30.7933C31.9267 36 35.7967 35.766 38.18 32.758C40.0587 30.3853 40.484 26.9387 39.4427 22.514ZM5 32.6667C7.20467 32.6667 8.66667 33.4667 8.66667 34C8.66667 34.5333 7.20467 35.3333 5 35.3333C2.79533 35.3333 1.33333 34.5333 1.33333 34C1.33333 33.4667 2.79533 32.6667 5 32.6667ZM5 38.6667C2.79533 38.6667 1.33333 37.8667 1.33333 37.3333V35.846C2.46749 36.4225 3.72832 36.7047 5 36.6667C6.27168 36.7047 7.53251 36.4225 8.66667 35.846V37.3333C8.66667 37.8667 7.20467 38.6667 5 38.6667ZM13.6667 37.3333C11.462 37.3333 10 36.5333 10 36V29.1793C11.1342 29.7558 12.395 30.038 13.6667 30C14.9383 30.038 16.1992 29.7558 17.3333 29.1793V36C17.3333 36.5333 15.8713 37.3333 13.6667 37.3333ZM17.3333 27.3333C17.3333 27.8667 15.8713 28.6667 13.6667 28.6667C11.462 28.6667 10 27.8667 10 27.3333C10 26.8 11.462 26 13.6667 26C15.8713 26 17.3333 26.8 17.3333 27.3333ZM8.66667 27.3333V32.154C7.53251 31.5776 6.27168 31.2954 5 31.3333C4.66667 31.3333 4.332 31.35 4 31.3833V16.5127C5.13415 17.0891 6.39499 17.3713 7.66667 17.3333C8.93835 17.3713 10.1992 17.0891 11.3333 16.5127V24.9567C9.72267 25.3893 8.66667 26.2667 8.66667 27.3333ZM11.3333 14.6667C11.3333 15.2 9.87133 16 7.66667 16C5.462 16 4 15.2 4 14.6667C4 14.1333 5.462 13.3333 7.66667 13.3333C9.87133 13.3333 11.3333 14.1333 11.3333 14.6667ZM11.6667 6.66668C9.462 6.66668 8 5.86668 8 5.33334C8 4.80001 9.462 4.00001 11.6667 4.00001C13.8713 4.00001 15.3333 4.80001 15.3333 5.33334C15.3333 5.86668 13.8713 6.66668 11.6667 6.66668ZM33.1333 6.00001C33.1333 7.09268 31.95 7.98934 30.4667 8.00001C30.2186 7.99844 29.9713 7.97005 29.7293 7.91534C30.6969 6.88304 31.3695 5.6098 31.6767 4.22868C32.0689 4.34423 32.4174 4.57483 32.677 4.89062C32.9367 5.20642 33.0957 5.59288 33.1333 6.00001ZM19.2453 1.85334C19.8083 2.3809 20.5525 2.67206 21.324 2.66668C22.096 2.67247 22.8407 2.38128 23.404 1.85334C23.5672 1.68862 23.7613 1.55787 23.9753 1.46863C24.1893 1.3794 24.4188 1.33345 24.6507 1.33345C24.8825 1.33345 25.1121 1.3794 25.326 1.46863C25.54 1.55787 25.7342 1.68862 25.8973 1.85334C26.4607 2.38167 27.2057 2.67292 27.978 2.66668C28.7502 2.67264 29.4952 2.38144 30.0587 1.85334C30.2433 1.69001 30.4487 1.55201 30.67 1.44268C30.67 2.68068 30.44 5.74134 28.292 7.41934C27.8088 7.78227 27.223 7.98276 26.6187 7.99201C27.1958 7.00075 27.6526 5.94417 27.9793 4.84468C28.0267 4.67423 28.0045 4.49194 27.9174 4.33791C27.8304 4.18388 27.6858 4.07073 27.5153 4.02334C27.3449 3.97596 27.1626 3.99822 27.0086 4.08524C26.8545 4.17226 26.7414 4.3169 26.694 4.48734C26.3248 5.74052 25.7571 6.92644 25.0127 8.00001H24.3273C23.5843 6.92549 23.0166 5.73985 22.6453 4.48734C22.5979 4.31699 22.4847 4.17246 22.3306 4.08557C22.1766 3.99868 21.9944 3.97654 21.824 4.02401C21.6536 4.07148 21.5091 4.18469 21.4222 4.33872C21.3353 4.49275 21.3132 4.67498 21.3607 4.84534C21.6877 5.94579 22.145 7.00326 22.7227 7.99534C22.1063 7.99218 21.5073 7.79043 21.0147 7.42001C18.8667 5.74268 18.6367 2.68201 18.6367 1.44801C18.8573 1.55401 19.0627 1.69001 19.2453 1.85334Z" fill="white"/>
<path d="M36.0898 31.102C36.8799 30.0156 37.3081 28.708 37.3138 27.3647C37.318 27.2772 37.305 27.1898 37.2754 27.1074C37.2458 27.0249 37.2003 26.9492 37.1414 26.8844C37.0825 26.8195 37.0114 26.7669 36.9322 26.7296C36.853 26.6923 36.7673 26.6709 36.6798 26.6667C36.5037 26.6604 36.3322 26.7233 36.2018 26.8417C36.0714 26.9601 35.9925 27.1248 35.9818 27.3007C35.9868 28.3654 35.6589 29.405 35.0438 30.274C33.7431 31.9167 31.2751 32 30.7931 32C30.6163 32 30.4468 32.0703 30.3217 32.1953C30.1967 32.3203 30.1265 32.4899 30.1265 32.6667C30.1265 32.8435 30.1967 33.0131 30.3217 33.1381C30.4468 33.2631 30.6163 33.3334 30.7931 33.3334C31.3825 33.3334 34.4071 33.226 36.0898 31.102Z" fill="white"/>
</g>
<defs>
<clipPath id="clip0_516_112">
<rect width="40" height="40" fill="white"/>
</clipPath>
</defs>
</svg>
