<svg width="25" height="24" viewBox="0 0 25 24" fill="none" xmlns="http://www.w3.org/2000/svg">
<path d="M9.5235 20.7714V17.7047C9.52348 16.9246 10.1848 16.2908 11.0043 16.2856H14.0058C14.8291 16.2856 15.4965 16.9209 15.4965 17.7047V17.7047V20.7809C15.4963 21.4432 16.0516 21.9845 16.7472 22H18.7482C20.7429 22 22.36 20.4607 22.36 18.5618V18.5618V9.83784C22.3493 9.09083 21.9809 8.38935 21.3595 7.93303L14.516 2.6853C13.3171 1.77157 11.6129 1.77157 10.414 2.6853L3.6005 7.94256C2.97675 8.39702 2.60768 9.09967 2.6 9.84736V18.5618C2.6 20.4607 4.21707 22 6.21183 22H8.21284C8.92565 22 9.50349 21.4499 9.50349 20.7714V20.7714" stroke="#333333" stroke-width="1.5" stroke-linecap="round" stroke-linejoin="round"/>
</svg>
