<svg xmlns="http://www.w3.org/2000/svg" style="display: none;">
  <!-- iconoir:search -->
  <symbol id="icon-search" viewBox="0 0 24 24">
    <path fill="none" stroke="currentColor" stroke-linecap="round" stroke-linejoin="round" stroke-width="1.5" d="m17 17l4 4M3 11a8 8 0 1 0 16 0a8 8 0 0 0-16 0"/>
  </symbol>

  <!-- mdi:facebook -->
  <symbol id="icon-facebook" viewBox="0 0 24 24">
    <path fill="currentColor" d="M12 2.04c-5.5 0-10 4.49-10 10.02c0 5 3.66 9.15 8.44 9.9v-7H7.9v-2.9h2.54V9.85c0-2.51 1.49-3.89 3.78-3.89c1.09 0 2.23.19 2.23.19v2.47h-1.26c-1.24 0-1.63.77-1.63 1.56v1.88h2.78l-.45 2.9h-2.33v7a10 10 0 0 0 8.44-9.9c0-5.53-4.5-10.02-10-10.02"/>
  </symbol>

  <!-- mdi:youtube -->
  <symbol id="icon-youtube" viewBox="0 0 24 24">
    <path fill="currentColor" d="m10 15l5.19-3L10 9zm11.56-7.83c.13.47.22 1.1.28 1.9c.07.8.1 1.49.1 2.09L22 12c0 2.19-.16 3.8-.44 4.83c-.25.9-.83 1.48-1.73 1.73c-.47.13-1.33.22-2.65.28c-1.3.07-2.49.1-3.59.1L12 19c-4.19 0-6.8-.16-7.83-.44c-.9-.25-1.48-.83-1.73-1.73c-.13-.47-.22-1.1-.28-1.9c-.07-.8-.1-1.49-.1-2.09L2 12c0-2.19.16-3.8.44-4.83c.25-.9.83-1.48 1.73-1.73c.47-.13 1.33-.22 2.65-.28c1.3-.07 2.49-.1 3.59-.1L12 5c4.19 0 6.8.16 7.83.44c.9.25 1.48.83 1.73 1.73"/>
  </symbol>

  <!-- ic:baseline-tiktok -->
  <symbol id="icon-tiktok" viewBox="0 0 24 24">
    <path fill="currentColor" d="M16.6 5.82s.51.5 0 0A4.28 4.28 0 0 1 15.54 3h-3.09v12.4a2.59 2.59 0 0 1-2.59 2.5c-1.42 0-2.6-1.16-2.6-2.6c0-1.72 1.66-3.01 3.37-2.48V9.66c-3.45-.46-6.47 2.22-6.47 5.64c0 3.33 2.76 5.7 5.69 5.7c3.14 0 5.69-2.55 5.69-5.7V9.01a7.35 7.35 0 0 0 4.3 1.38V7.3s-1.88.09-3.24-1.48"/>
  </symbol>

  <!-- mdi:email -->
  <symbol id="icon-email" viewBox="0 0 24 24">
    <path fill="currentColor" d="m20 8l-8 5l-8-5V6l8 5l8-5m0-2H4c-1.11 0-2 .89-2 2v12a2 2 0 0 0 2 2h16a2 2 0 0 0 2-2V6a2 2 0 0 0-2-2"/>
  </symbol>

  <!-- simple-icons:zalo -->
  <symbol id="icon-zalo" viewBox="0 0 24 24">
    <path fill="currentColor" d="M12.49 10.2722v-.4496h1.3467v6.3218h-.7704a.576.576 0 01-.5763-.5729l-.0006.0005a3.273 3.273 0 01-1.9372.6321c-1.8138 0-3.2844-1.4697-3.2844-3.2823 0-1.8125 1.4706-3.2822 3.2844-3.2822a3.273 3.273 0 011.9372.6321l.0006.0005zM6.9188 7.7896v.205c0 .3823-.051.6944-.2995 1.0605l-.03.0343c-.0542.0615-.1815.206-.2421.2843L2.024 14.8h4.8948v.7682a.5764.5764 0 01-.5767.5761H0v-.3622c0-.4436.1102-.6414.2495-.8476L4.8582 9.23H.1922V7.7896h6.7266zm8.5513 8.3548a.4805.4805 0 01-.4803-.4798v-7.875h1.4416v8.3548H15.47zM20.6934 9.6C22.52 9.6 24 11.0807 24 12.9044c0 1.8252-1.4801 3.306-3.3066 3.306-1.8264 0-3.3066-1.4808-3.3066-3.306 0-1.8237 1.4802-3.3044 3.3066-3.3044zm-10.1412 5.253c1.0675 0 1.9324-.8645 1.9324-1.9312 0-1.065-.865-1.9295-1.9324-1.9295s-1.9324.8644-1.9324 1.9295c0 1.0667.865 1.9312 1.9324 1.9312zm10.1412-.0033c1.0737 0 1.945-.8707 1.945-1.9453 0-1.073-.8713-1.9436-1.945-1.9436-1.0753 0-1.945.8706-1.945 1.9436 0 1.0746.8697 1.9453 1.945 1.9453z"/>
  </symbol>

  <!-- mdi:home -->
  <symbol id="icon-home" viewBox="0 0 24 24">
    <path fill="currentColor" d="M10 20v-6h4v6h5v-8h3L12 3L2 12h3v8z"/>
  </symbol>

  <!-- mdi:arrow-left -->
  <symbol id="icon-arrow-left" viewBox="0 0 24 24">
    <path fill="currentColor" d="M20 11v2H8l5.5 5.5l-1.42 1.42L4.16 12l7.92-7.92L13.5 5.5L8 11z"/>
  </symbol>

  <!-- mdi:calendar -->
  <symbol id="icon-calendar" viewBox="0 0 24 24">
    <path fill="currentColor" d="M19 19H5V8h14m-3-7v2H8V1H6v2H5c-1.11 0-2 .89-2 2v14a2 2 0 0 0 2 2h14a2 2 0 0 0 2-2V5a2 2 0 0 0-2-2h-1V1m-1 11h-5v5h5z"/>
  </symbol>

  <!-- mdi:bookmark -->
  <symbol id="icon-bookmark" viewBox="0 0 24 24">
    <path fill="currentColor" d="M17 3H7a2 2 0 0 0-2 2v16l7-3l7 3V5a2 2 0 0 0-2-2"/>
  </symbol>

  <!-- mdi:currency-usd -->
  <symbol id="icon-currency-usd" viewBox="0 0 24 24">
    <path fill="currentColor" d="M7 15h2c0 1.08 1.37 2 3 2s3-.92 3-2c0-1.1-1.04-1.5-3.24-2.03C9.64 12.44 7 11.78 7 9c0-1.79 1.47-3.31 3.5-3.82V3h3v2.18C15.53 5.69 17 7.21 17 9h-2c0-1.08-1.37-2-3-2s-3 .92-3 2c0 1.1 1.04 1.5 3.24 2.03C14.36 11.56 17 12.22 17 15c0 1.79-1.47 3.31-3.5 3.82V21h-3v-2.18C8.47 18.31 7 16.79 7 15"/>
  </symbol>

  <!-- mdi:map-marker -->
  <symbol id="icon-map-marker" viewBox="0 0 24 24">
    <path fill="currentColor" d="M12 11.5A2.5 2.5 0 0 1 9.5 9A2.5 2.5 0 0 1 12 6.5A2.5 2.5 0 0 1 14.5 9a2.5 2.5 0 0 1-2.5 2.5M12 2a7 7 0 0 0-7 7c0 5.25 7 13 7 13s7-7.75 7-13a7 7 0 0 0-7-7"/>
  </symbol>

  <!-- ic:outline-email -->
  <symbol id="icon-outline-email" viewBox="0 0 24 24">
    <path fill="currentColor" d="M22 6c0-1.1-.9-2-2-2H4c-1.1 0-2 .9-2 2v12c0 1.1.9 2 2 2h16c1.1 0 2-.9 2-2zm-2 0l-8 5l-8-5zm0 12H4V8l8 5l8-5z"/>
  </symbol>

  <!-- ic:outline-phone -->
  <symbol id="icon-outline-phone" viewBox="0 0 24 24">
    <path fill="currentColor" d="M6.54 5c.06.89.21 1.76.45 2.59l-1.2 1.2c-.41-1.2-.67-2.47-.76-3.79zm9.86 12.02c.85.24 1.72.39 2.6.45v1.49c-1.32-.09-2.59-.35-3.8-.75zM7.5 3H4c-.55 0-1 .45-1 1c0 9.39 7.61 17 17 17c.55 0 1-.45 1-1v-3.49c0-.55-.45-1-1-1c-1.24 0-2.45-.2-3.57-.57a.84.84 0 0 0-.31-.05c-.26 0-.51.1-.71.29l-2.2 2.2a15.15 15.15 0 0 1-6.59-6.59l2.2-2.2c.28-.28.36-.67.25-1.02A11.4 11.4 0 0 1 8.5 4c0-.55-.45-1-1-1"/>
  </symbol>

  <!-- mdi:twitter -->
  <symbol id="icon-twitter" viewBox="0 0 24 24">
    <path fill="currentColor" d="M22.46 6c-.77.35-1.6.58-2.46.69c.88-.53 1.56-1.37 1.88-2.38c-.83.5-1.75.85-2.72 1.05C18.37 4.5 17.26 4 16 4c-2.35 0-4.27 1.92-4.27 4.29c0 .34.04.67.11.98C8.28 9.09 5.11 7.38 3 4.79c-.37.63-.58 1.37-.58 2.15c0 1.49.75 2.81 1.91 3.56c-.71 0-1.37-.2-1.95-.5v.03c0 2.08 1.48 3.82 3.44 4.21a4.2 4.2 0 0 1-1.93.07a4.28 4.28 0 0 0 4 2.98a8.52 8.52 0 0 1-5.33 1.84q-.51 0-1.02-.06C3.44 20.29 5.7 21 8.12 21C16 21 20.33 14.46 20.33 8.79c0-.19 0-.37-.01-.56c.84-.6 1.56-1.36 2.14-2.23"/>
  </symbol>

  <!-- mdi:linkedin -->
  <symbol id="icon-linkedin" viewBox="0 0 24 24">
    <path fill="currentColor" d="M19 3a2 2 0 0 1 2 2v14a2 2 0 0 1-2 2H5a2 2 0 0 1-2-2V5a2 2 0 0 1 2-2zm-.5 15.5v-5.3a3.26 3.26 0 0 0-3.26-3.26c-.85 0-1.84.52-2.32 1.3v-1.11h-2.79v8.37h2.79v-4.93c0-.77.62-1.4 1.39-1.4a1.4 1.4 0 0 1 1.4 1.4v4.93zM6.88 8.56a1.68 1.68 0 0 0 1.68-1.68c0-.93-.75-1.69-1.68-1.69a1.69 1.69 0 0 0-1.69 1.69c0 .93.76 1.68 1.69 1.68m1.39 9.94v-8.37H5.5v8.37z"/>
  </symbol>

  <!-- mdi:phone -->
  <symbol id="icon-phone" viewBox="0 0 24 24">
    <path fill="currentColor" d="M6.62 10.79c1.44 2.83 3.76 5.14 6.59 6.59l2.2-2.2c.27-.27.67-.36 1.02-.24c1.12.37 2.33.57 3.57.57c.55 0 1 .45 1 1V20c0 .55-.45 1-1 1c-9.39 0-17-7.61-17-17c0-.55.45-1 1-1h3.5c.55 0 1 .45 1 1c0 1.25.2 2.45.57 3.57c.11.35.03.74-.25 1.02z"/>
  </symbol>

  <!-- mdi:facebook-messenger -->
  <symbol id="icon-messenger" viewBox="0 0 24 24">
    <path fill="currentColor" d="M12 2C6.36 2 2 6.13 2 11.7c0 2.91 1.19 5.44 3.14 7.17c.16.13.26.35.27.57l.05 1.78c.04.57.61.94 1.13.71l1.98-.87c.17-.08.36-.1.55-.06c.91.25 1.87.38 2.88.38c5.64 0 10-4.13 10-9.7C22 6.13 17.64 2 12 2m5.89 7.55l-2.89 4.53c-.46.72-1.41.9-2.09.4l-2.3-1.73a.6.6 0 0 0-.58 0l-3.11 2.36c-.42.31-.97-.18-.69-.62l2.89-4.53c.46-.72 1.41-.9 2.09-.4l2.3 1.73a.6.6 0 0 0 .58 0l3.11-2.36c.42-.31.97.18.69.62"/>
  </symbol>

  <!-- mdi:robot -->
  <symbol id="icon-robot" viewBox="0 0 24 24">
    <path fill="currentColor" d="M12 2a2 2 0 0 1 2 2c0 .74-.4 1.39-1 1.73V7h1a7 7 0 0 1 7 7h1a1 1 0 0 1 1 1v3a1 1 0 0 1-1 1h-1v1a2 2 0 0 1-2 2H5a2 2 0 0 1-2-2v-1H2a1 1 0 0 1-1-1v-3a1 1 0 0 1 1-1h1a7 7 0 0 1 7-7h1V5.73c-.6-.34-1-.99-1-1.73a2 2 0 0 1 2-2M7.5 13A2.5 2.5 0 0 0 5 15.5A2.5 2.5 0 0 0 7.5 18a2.5 2.5 0 0 0 2.5-2.5A2.5 2.5 0 0 0 7.5 13m9 0a2.5 2.5 0 0 0-2.5 2.5a2.5 2.5 0 0 0 2.5 2.5a2.5 2.5 0 0 0 2.5-2.5a2.5 2.5 0 0 0-2.5-2.5"/>
  </symbol>

  <!-- mdi:chat -->
  <symbol id="icon-chat" viewBox="0 0 24 24">
    <path fill="currentColor" d="M12 3c5.5 0 10 3.58 10 8s-4.5 8-10 8c-1.24 0-2.43-.18-3.53-.5C5.55 21 2 21 2 21c2.33-2.33 2.7-3.9 2.75-4.5C3.05 15.07 2 13.13 2 11c0-4.42 4.5-8 10-8m0 2c-4.42 0-8 2.69-8 6c0 1.66.83 3.19 2.21 4.32l.53.41l-.01.66c-.02.49-.13 1.12-.42 1.88c.92-.26 1.88-.72 2.77-1.37l.46-.34l.56.12c.9.2 1.86.32 2.9.32c4.42 0 8-2.69 8-6s-3.58-6-8-6"/>
    <circle cx="8" cy="11" r="1.5" fill="currentColor"/>
    <circle cx="12" cy="11" r="1.5" fill="currentColor"/>
    <circle cx="16" cy="11" r="1.5" fill="currentColor"/>
  </symbol>

  <!-- mdi:close -->
  <symbol id="icon-close" viewBox="0 0 24 24">
    <path fill="currentColor" d="M19 6.41L17.59 5L12 10.59L6.41 5L5 6.41L10.59 12L5 17.59L6.41 19L12 13.41L17.59 19L19 17.59L13.41 12z"/>
  </symbol>

  <!-- mdi:refresh -->
  <symbol id="icon-refresh" viewBox="0 0 24 24">
    <path fill="currentColor" d="M17.65 6.35A7.96 7.96 0 0 0 12 4a8 8 0 0 0-8 8a8 8 0 0 0 8 8c3.73 0 6.84-2.55 7.73-6h-2.08A5.99 5.99 0 0 1 12 18a6 6 0 0 1-6-6a6 6 0 0 1 6-6c1.66 0 3.14.69 4.22 1.78L13 11h7V4z"/>
  </symbol>

  <!-- mdi:account -->
  <symbol id="icon-account" viewBox="0 0 24 24">
    <path fill="currentColor" d="M12 4a4 4 0 0 1 4 4a4 4 0 0 1-4 4a4 4 0 0 1-4-4a4 4 0 0 1 4-4m0 10c4.42 0 8 1.79 8 4v2H4v-2c0-2.21 3.58-4 8-4"/>
  </symbol>
</svg>
