<svg width="50" height="72" viewBox="0 0 50 72" fill="none" xmlns="http://www.w3.org/2000/svg">
<g clip-path="url(#clip0_99_22)">
<path d="M111.878 45.9008C111.27 45.7552 110.306 45.1596 110.015 44.7361C109.461 43.942 109.303 43.4919 109.303 42.6051C109.316 41.1757 109.884 40.2095 111.099 39.5874C112.921 38.6608 115.22 39.2962 116.091 40.9903C116.54 41.8639 116.593 43.1345 116.21 43.9816C115.536 45.4772 113.622 46.3244 111.878 45.9008ZM113.978 44.4978C114.559 44.1934 114.929 43.5581 114.982 42.7374C115.06 41.5065 114.348 40.6065 113.146 40.408C112.472 40.2888 111.495 40.7521 111.085 41.3874C110.729 41.9168 110.676 43.0551 110.967 43.6243C111.508 44.6831 112.842 45.0669 113.978 44.4978ZM130.185 45.8078C128.684 45.2767 127.86 44.1213 127.873 42.5409C127.887 41.2129 128.524 40.1505 129.667 39.606C130.518 39.181 131.62 39.0481 132.483 39.2606C135.539 40.0176 136.097 44.0681 133.347 45.5555C132.43 46.0469 131.142 46.1531 130.185 45.8078ZM132.165 44.6657C133.121 44.3205 133.613 43.6166 133.613 42.594C133.613 40.2966 130.531 39.513 129.601 41.5714C128.976 42.9261 129.627 44.4001 130.983 44.7189C131.554 44.865 131.594 44.865 132.165 44.6657ZM141.362 45.9433C140.688 45.8379 139.619 45.0736 139.21 44.4014C138.892 43.8875 138.8 43.5712 138.76 42.8464C138.668 41.3177 139.236 40.2767 140.503 39.6046C141.084 39.3015 141.336 39.2488 142.299 39.2488C143.475 39.2488 143.99 39.4201 144.65 40.0131L144.941 40.2899L144.531 40.7115L144.109 41.1464L143.581 40.7906C142.617 40.1581 141.23 40.3953 140.543 41.3177C140.147 41.8449 140.094 43.0573 140.425 43.6635C141.071 44.8363 142.617 45.1394 143.673 44.3092L144.03 44.0325L144.386 44.3356C144.954 44.8495 144.967 44.9023 144.518 45.2844C143.805 45.8906 142.617 46.141 141.362 45.9433ZM57.039 43.222V40.522H54.9166V39.3366H60.7531V40.522H58.4981V45.922H57.039V43.222ZM61.6375 42.6293V39.3366H63.0966V41.9707H66.2802V39.3366H67.7393V45.922H66.2802V43.1561H63.0966V45.922H61.6375V42.6293ZM68.5352 45.8956C68.5352 45.8693 69.1875 44.3941 69.9996 42.6293L71.4507 39.4024L72.2228 39.3629L72.9949 39.3366L74.4726 42.6293L75.9635 45.922H74.4193L74.1131 45.1976L73.8069 44.4732H70.5986L70.3324 45.1712L70.0528 45.8561L69.294 45.8956C68.8813 45.922 68.5352 45.922 68.5352 45.8956ZM73.2878 43.2351C72.9416 42.3659 72.3426 40.9566 72.2627 40.8776C72.2094 40.8117 71.9299 41.3649 71.6237 42.0893L71.0912 43.4195H72.2228C73.1547 43.4195 73.341 43.38 73.2878 43.2351ZM76.7594 42.6293V39.3366H77.3961L78.0196 39.3498L79.6114 41.3122C80.4869 42.3922 81.243 43.2746 81.3093 43.2878C81.3623 43.2878 81.4021 42.4054 81.4021 41.3122V39.3366H82.8613V45.922H81.6011L80.1022 44.0781C79.2665 43.0771 78.5104 42.1815 78.4043 42.0893C78.2451 41.9576 78.2186 42.221 78.2186 43.9332V45.922H76.7594V42.6293ZM84.5415 42.6293V39.3366H86.0114V41.9707H89.0852V39.3366H90.5549V45.922H89.0852V43.1561H86.0114V45.922H84.5415V42.6293ZM95.065 42.6227V39.3366L97.0158 39.376C99.2045 39.4154 99.6926 39.5732 100.298 40.3619C100.787 40.9928 100.865 42.0049 100.483 42.7279C99.9951 43.7006 99.1382 44.0817 97.4774 44.0817H96.5153V45.922H95.065V42.6227ZM98.9144 42.5307C99.3628 42.0969 99.323 41.2557 98.8481 40.8482C98.5324 40.5722 98.3476 40.5328 97.4907 40.5328H96.5153V42.925L97.5694 42.8724C98.4395 42.833 98.6642 42.7805 98.9144 42.5307ZM101.963 42.6293V39.3366H103.401V41.9707H106.538V39.3366H107.976V45.922H106.538V43.1561H103.401V45.922H101.963V42.6293ZM120.445 42.6293V39.3366H121.904V41.9707H125.088V39.3366H126.547V45.922H125.088V43.1561H121.904V45.922H120.445V42.6293ZM146.179 42.6293V39.3366H147.638V41.9707H150.822V39.3366H152.281V45.922H150.822V43.1561H147.638V45.922H146.179V42.6293ZM153.961 42.6293V39.3366H155.376V45.922H153.961V42.6293ZM159.798 42.6227V39.3366L160.421 39.376L161.031 39.4154L162.185 41.2951C162.822 42.3335 163.392 43.2273 163.472 43.3062C163.565 43.3982 164.003 42.7673 164.825 41.4003L166.032 39.3498H167.226V45.922H165.913L165.873 43.924L165.833 41.9129L164.838 43.5822C163.512 45.8037 163.498 45.8037 162.252 43.6874C161.748 42.8199 161.283 42.1101 161.23 42.1101C161.164 42.1101 161.124 42.9644 161.124 44.016V45.922H159.798V42.6227ZM168.906 42.6293V39.3366H170.409V45.922H168.906V42.6293ZM172.09 42.6293V39.3366L172.726 39.3498H173.35L174.942 41.3122C175.817 42.3922 176.573 43.2746 176.64 43.2746C176.693 43.2878 176.732 42.4054 176.732 41.3122V39.3366H178.192V45.922H177.568L176.931 45.9088L175.273 43.8937L173.615 41.8785L173.575 43.9068L173.536 45.922H172.09V42.6293ZM179.872 42.6293V39.3366H181.342V41.9707H184.415V39.3366H185.885V45.922H184.415V43.1561H181.342V45.922H179.872V42.6293ZM71.0621 37.9756L70.2154 37.3171H70.9949C71.7742 37.3302 71.8011 37.3434 72.3656 37.9756L72.9568 38.6341H72.4328C72.0296 38.6341 71.7474 38.5024 71.0621 37.9756ZM111.671 38.1951C112.129 37.8062 112.26 37.7561 112.915 37.7561C113.557 37.7687 113.714 37.8188 114.173 38.1951L114.697 38.6341H114.199C113.884 38.6341 113.531 38.5338 113.309 38.3707L112.928 38.1073L112.483 38.3707C112.247 38.5212 111.841 38.6341 111.605 38.6341L111.16 38.6216L111.671 38.1951ZM130.245 38.1951C130.694 37.8188 130.853 37.7687 131.499 37.7561C132.159 37.7561 132.292 37.8062 132.753 38.1951L133.268 38.6216L132.819 38.6341C132.582 38.6341 132.172 38.5212 131.935 38.3707L131.486 38.1073L131.103 38.3707C130.879 38.5212 130.51 38.6341 130.219 38.6341H129.731L130.245 38.1951ZM154.506 37.9756C155.037 37.3302 155.076 37.3171 155.75 37.3171C156.126 37.3171 156.437 37.3434 156.437 37.3698C156.437 37.3829 156.087 37.6859 155.672 38.0283C155.076 38.4893 154.791 38.6341 154.428 38.6341H153.961L154.506 37.9756ZM114.688 37.2293C115.096 36.742 115.161 36.7024 115.832 36.7024H116.554L115.845 37.2293C115.345 37.5981 115.004 37.7561 114.701 37.7561H114.255L114.688 37.2293ZM132.501 37.2293L131.764 36.7024H132.529C133.238 36.7024 133.293 36.7288 133.715 37.2293L134.152 37.7561H133.688C133.375 37.7561 133.019 37.5981 132.501 37.2293ZM112.751 36.1756C112.606 36.0307 112.486 35.8727 112.486 35.8068C112.486 35.5698 112.924 35.122 113.149 35.122C113.375 35.122 113.813 35.5698 113.813 35.8068C113.813 35.9517 113.309 36.439 113.149 36.439C113.083 36.439 112.897 36.3205 112.751 36.1756ZM134.272 36.285C133.887 36.1358 133.874 35.4169 134.247 35.2134C134.774 34.915 135.275 35.3898 135.082 36.0138C134.993 36.3258 134.659 36.4343 134.272 36.285ZM70.2373 34.2027C69.5874 33.9002 69.1895 33.4794 68.911 32.835C68.7651 32.4536 68.7121 31.8223 68.7121 30.0337V27.7322H70.1577L70.1975 30.0995C70.2373 32.4405 70.2373 32.4667 70.5821 32.8087C71.033 33.2427 71.8287 33.361 72.4123 33.0585C73.1019 32.7166 73.2212 32.2432 73.2212 29.8364V27.7322H73.8843C74.6138 27.7322 74.9055 27.4429 74.7596 26.8643C74.6934 26.6012 74.7332 26.5223 75.0249 26.404C75.4758 26.2461 75.6085 26.3645 75.688 27.022C75.7676 27.6008 75.3697 28.3767 74.9453 28.4819C74.7199 28.5345 74.6934 28.7318 74.6536 30.5466C74.6138 32.5062 74.6005 32.5719 74.2159 33.1901C73.6854 34.0449 73.0488 34.3606 71.7624 34.4132C71.0065 34.4394 70.6484 34.3869 70.2373 34.2027ZM78.3203 34.2778C76.6732 33.6731 75.8231 32.3979 75.9826 30.7679C76.102 29.4533 76.7662 28.5462 78.0015 27.9941C78.5859 27.7312 78.8516 27.6918 80.2728 27.7181C82.0659 27.7443 82.2652 27.6655 82.1589 26.9687C82.1058 26.627 82.1589 26.5481 82.491 26.4166C82.9692 26.2195 83.1153 26.3904 83.1153 27.166C83.1153 27.7443 82.7168 28.4016 82.3715 28.4016C82.1058 28.4016 82.1323 28.4805 82.5707 29.1115C83.7927 30.8599 83.2216 33.1078 81.3221 34.0938C80.658 34.4355 79.0109 34.5275 78.3203 34.2778ZM80.5384 33.0158C81.269 32.6871 81.6941 32.0036 81.7073 31.1096C81.7206 29.8213 80.8572 28.9275 79.5954 28.9275C78.4266 28.9275 77.5897 29.6767 77.4569 30.8336C77.3506 31.7669 77.789 32.5689 78.5992 32.9764C79.3165 33.3313 79.8212 33.3444 80.5384 33.0158ZM94.0754 34.2514C92.3625 33.6241 91.4994 31.7815 92.0432 29.952C92.2829 29.1679 93.3582 28.1486 94.2081 27.9003C95.5354 27.5344 97.3943 27.848 98.0451 28.5537C98.2308 28.7628 98.2176 28.815 97.8064 29.2071L97.3545 29.6384L96.9433 29.3377C96.3189 28.8934 95.1242 28.8412 94.4203 29.2332C92.9196 30.0565 93.0266 32.3304 94.5927 33.023C95.2171 33.2974 95.7751 33.3366 96.3853 33.1276L96.7974 32.9838V31.0497H98.1247V33.7678L97.4341 34.0554C96.5444 34.4474 94.8589 34.5388 94.0754 34.2514ZM133.278 34.267C131.861 33.7391 131.1 32.7757 130.982 31.3504C130.903 30.321 131.166 29.5027 131.822 28.7769C132.832 27.6419 134.799 27.3251 136.256 28.0379C138.748 29.2652 138.761 32.7889 136.269 34.0954C135.6 34.4386 133.999 34.5309 133.278 34.267ZM135.548 32.9605C136.256 32.5777 136.649 31.8783 136.636 31.0072C136.61 28.8693 134.039 28.1171 132.753 29.8591C132.058 30.7961 132.477 32.4194 133.579 32.9736C134.314 33.3432 134.839 33.3432 135.548 32.9605ZM141.482 34.3099C140.345 33.9665 139.42 33.0286 139.116 31.8793C138.812 30.7565 139.222 29.3298 140.081 28.5373C141.311 27.388 144.008 27.3616 144.999 28.4844C145.264 28.7751 145.264 28.7751 144.854 29.1845L144.444 29.594L144.008 29.277C143.69 29.0524 143.346 28.96 142.765 28.9203C141.787 28.8543 141.205 29.1978 140.742 30.0828C140.358 30.8093 140.425 31.6151 140.914 32.3417C141.535 33.2795 143.135 33.5174 143.995 32.7908L144.365 32.487L144.881 32.9097L145.383 33.3457L144.907 33.7023C144.643 33.9137 144.193 34.1514 143.928 34.2571C143.373 34.4421 142.038 34.4817 141.482 34.3099ZM159.013 34.3378C157.458 33.8408 156.601 32.6638 156.614 31.029C156.614 29.0411 158.038 27.7463 160.2 27.7463C161.215 27.7463 162.006 27.9948 162.678 28.5311L162.981 28.7795L162.52 29.2111L162.071 29.6427L161.637 29.3418C160.7 28.688 159.093 28.9103 158.46 29.7866C158.117 30.2705 157.985 31.4082 158.223 31.9706C158.631 32.9384 159.817 33.4616 160.964 33.1477L161.518 33.0038V31.0551H162.849L162.81 32.4022L162.77 33.7362L162.124 34.05C161.624 34.2985 161.215 34.377 160.41 34.4163C159.817 34.4293 159.198 34.4032 159.013 34.3378ZM207.005 34.2902C206.795 34.211 206.364 33.9736 206.064 33.7625C204.495 32.6809 204.259 30.2537 205.58 28.7764C206.547 27.6947 208.469 27.3386 209.907 27.9717C210.508 28.2355 211.123 28.7236 210.979 28.8159C210.952 28.8292 210.744 29.0138 210.522 29.2116L210.116 29.581L209.62 29.2512C209.227 28.9874 208.965 28.9083 208.377 28.9083C207.161 28.9083 206.299 29.6733 206.194 30.8473C206.05 32.4566 207.606 33.657 209.148 33.1161L209.554 32.9711V31.0188H210.861V33.7625L210.181 34.0527C209.384 34.4089 207.645 34.5408 207.005 34.2902ZM57.039 31.6317V28.9317H54.9166V27.7463H60.7531V28.9317H58.4981V34.3317H57.039V31.6317ZM61.6375 31.0385V27.7463L63.6148 27.7857C65.4853 27.8382 65.6056 27.8513 66.2202 28.2186C67.6498 29.0317 67.7834 30.9073 66.5142 31.9304L66.0197 32.337L66.6076 33.1765C67.5028 34.4094 67.5028 34.3307 66.621 34.3307L65.8461 34.3176L65.2048 33.4126L64.5634 32.4944H63.1071V34.3307H61.6375V31.0385ZM65.3517 31.1697C65.7392 30.9336 65.953 30.3696 65.8461 29.8711C65.7125 29.2547 65.1113 28.953 64.0157 28.953H63.1071V31.4845L64.0958 31.4058C64.6303 31.3665 65.2047 31.2615 65.3517 31.1697ZM84.4531 31.039V27.7463H85.7265L87.3713 29.7746L89.0294 31.7898L89.0692 29.7746L89.109 27.7463H90.5549V34.3317H89.9315L89.2947 34.3185L87.703 32.3561C86.8275 31.2761 86.0714 30.3937 86.0183 30.3805C85.952 30.3805 85.9122 31.2761 85.9122 32.3561V34.3317H84.4531V31.039ZM102.488 32.8756V31.4195H102.093C101.724 31.4195 101.697 31.3801 101.697 30.9604C101.697 30.5406 101.724 30.5012 102.093 30.5012H102.488V27.7463H104.2C106.254 27.7463 107.045 27.9038 107.861 28.4548C108.744 29.0713 109.139 29.8847 109.126 31.0915C109.112 32.4427 108.559 33.3609 107.361 33.9907C106.979 34.2005 106.531 34.2399 104.701 34.2792L102.488 34.3317V32.8756ZM106.702 32.8362C107.426 32.3377 107.664 31.918 107.664 31.1177C107.664 29.6485 106.939 29.0319 105.095 28.9532L103.937 28.9007V30.5012H105.649V31.4063L104.832 31.4457L104.002 31.4851L103.963 32.3115L103.923 33.1248H105.095C106.096 33.1248 106.333 33.0855 106.702 32.8362ZM110.945 31.039L112.41 27.7463H113.875L115.354 31.039L116.819 34.3317H115.288L114.998 33.6073L114.694 32.8698L113.11 32.9093L111.526 32.9488L111.261 33.6468L110.998 34.3317H109.479L110.945 31.039ZM114.205 31.7634C114.205 31.6844 113.281 29.4454 113.189 29.2741C113.123 29.182 112.094 31.4868 112.094 31.7371C112.094 31.7898 112.568 31.8293 113.149 31.8293C113.73 31.8293 114.205 31.8029 114.205 31.7634ZM117.704 31.039V27.7463H119.119V34.3317H117.704V31.039ZM123.54 31.039V27.7463H124.978V30.3805H128.116V27.7463H129.554V34.3317H128.116V31.5527L126.586 31.5922L125.044 31.6317L125.005 32.9883L124.965 34.3317H123.54V31.039ZM149.186 31.039V27.7463L149.822 27.7595H150.446L152.104 29.8141L153.762 31.8556L153.802 29.801L153.842 27.7463H155.288V34.3317H154.027L152.369 32.3298L150.711 30.3146L150.671 32.3298L150.632 34.3317H149.186V31.039ZM164.977 31.039L166.442 27.7463H167.908L169.386 31.039L170.852 34.3317H169.32L169.03 33.6073L168.727 32.8698L167.142 32.9093L165.558 32.9488L165.294 33.6468L165.03 34.3317H163.512L164.977 31.039ZM168.238 31.7634C168.238 31.6844 167.313 29.4454 167.221 29.2741C167.155 29.182 166.126 31.4868 166.126 31.7371C166.126 31.7898 166.601 31.8293 167.182 31.8293C167.763 31.8293 168.238 31.8029 168.238 31.7634ZM171.736 31.039V27.7463L172.373 27.7595H172.996L174.654 29.7878L176.312 31.8161L176.352 29.7746L176.392 27.7463H177.838V34.3317H176.578L175.065 32.4878C174.23 31.4737 173.46 30.5781 173.368 30.499C173.222 30.3805 173.195 30.7098 173.195 32.3429V34.3317H171.736V31.039ZM182.171 31.039V27.7463H183.63V30.3805H186.814V27.7463H188.273V34.3317H186.814V31.5527L185.262 31.5922L183.696 31.6317L183.657 32.9883L183.617 34.3317H182.171V31.039ZM189.157 34.2397C189.157 34.174 189.799 32.715 190.588 30.9798L192.032 27.8252L192.767 27.7858L193.516 27.7463L194.826 30.6119C195.548 32.1892 196.217 33.6745 196.323 33.9111L196.497 34.3317H194.959L194.679 33.6351L194.384 32.9515L192.794 32.9121L191.203 32.8727L190.896 33.6087L190.588 34.3317H189.866C189.465 34.3317 189.144 34.2923 189.157 34.2397ZM193.823 31.716C193.823 31.6502 193.582 31.0456 193.302 30.3752C192.794 29.1922 192.767 29.1528 192.633 29.4945C192.553 29.6917 192.312 30.2701 192.085 30.7959C191.871 31.3085 191.685 31.7554 191.685 31.7817C191.685 31.8079 192.166 31.8343 192.754 31.8343C193.342 31.8343 193.823 31.7817 193.823 31.716ZM197.293 31.0324V27.7463H198.548L200.209 29.7969L201.868 31.8474V27.7463H203.306V34.3317L202.692 34.2923L202.077 34.2529L200.509 32.3469C199.659 31.2953 198.901 30.4278 198.849 30.4016C198.783 30.3752 198.731 31.2427 198.731 32.3338V34.3185H197.293V31.0324ZM78.5104 26.4922L77.8206 25.9534L78.5104 25.9149C79.1604 25.8764 79.2267 25.9021 79.7042 26.3639C79.9695 26.6333 80.195 26.89 80.2083 26.9541C80.2083 27.0054 79.9828 27.0439 79.7175 27.0439C79.3328 27.0311 79.0543 26.9028 78.5104 26.4922ZM165.945 26.4732C166.405 25.9151 166.444 25.9024 167.168 25.9024C167.879 25.9151 167.919 25.9278 168.406 26.4732L168.906 27.0439H168.419C168.063 27.0439 167.814 26.9551 167.55 26.7015L167.182 26.359L166.813 26.7015C166.549 26.9551 166.3 27.0439 165.945 27.0439H165.457L165.945 26.4732ZM191.72 26.4946L191.014 25.958L191.631 25.9197C192.427 25.8686 192.478 25.8942 192.978 26.5201L193.402 27.0439L192.901 27.0312C192.529 27.0312 192.247 26.9034 191.72 26.4946ZM13.2118 65.4498C10.6915 64.2644 7.38412 61.9551 5.40323 59.9971C2.67066 57.3015 1.10541 54.6673 0.282984 51.3922L0.0442163 50.4702L0.0265298 28.2468L0 6.01463L0.813579 5.95317C3.85566 5.74244 4.60733 5.38244 8.68407 2.2039C10.4616 0.825366 11.9207 0.131707 13.2472 0.0439024L13.8839 0V40.5044H12.3452C10.9037 40.5044 10.7976 40.4956 10.7446 40.3376C10.6561 40.0566 9.94866 39.4683 9.55956 39.3541L9.19698 39.2488V37.6946H9.97519C10.7269 37.6946 10.7622 37.7034 10.8772 37.9229C11.0275 38.1863 11.3901 38.3971 11.7173 38.3971C12.2302 38.3971 12.7343 37.9141 12.7343 37.4312C12.7343 36.8341 12.1153 36.3073 11.5581 36.4127C11.2575 36.4741 10.7888 36.8693 10.7888 37.0537C10.7888 37.1415 10.5942 37.1678 9.99288 37.1678H9.19698V32.9093L9.5065 32.6634C10.0459 32.2332 10.0106 31.4517 9.42691 31.1005C8.36572 30.4595 7.30453 31.8995 8.26844 32.6634L8.57796 32.9093V39.2576L8.31266 39.319C8.17117 39.3541 7.91471 39.4683 7.73785 39.5912C7.56098 39.7054 7.39296 39.802 7.35759 39.802C7.32221 39.802 6.75625 39.2663 6.10184 38.6166L4.91685 37.4312L5.34132 37.001C5.73927 36.5971 5.78349 36.5795 6.13722 36.6146C6.63244 36.6761 7.00386 36.4741 7.19841 36.0702C7.57867 35.28 6.77393 34.4107 5.9692 34.7444C5.50935 34.9376 5.27942 35.2976 5.32364 35.7717C5.36785 36.1581 5.34132 36.2107 4.96106 36.6322L4.55428 37.08L3.76723 36.2985C3.07745 35.6049 2.99786 35.4995 3.0863 35.3415C3.21894 35.0956 3.2101 34.6566 3.05977 34.3756C2.90059 34.0683 2.5557 33.8839 2.15775 33.8927C0.866639 33.9278 0.928542 35.8507 2.2285 35.8507C2.4938 35.8507 2.72372 36.0527 4.75767 38.0722L6.99501 40.2937L6.88005 40.6624L6.76509 41.0312H2.78562L2.63529 40.7678C2.24619 40.0829 1.11425 40.241 0.884325 41.0137C0.68093 41.681 1.17615 42.3132 1.89246 42.2956C2.19313 42.2868 2.29925 42.2254 2.57339 41.9181L2.90059 41.5581L4.81957 41.5756L6.72972 41.602L6.89774 42.0849L7.06576 42.5678L5.42976 44.201L3.78491 45.8341L3.25432 45.8254C2.76794 45.8166 2.70604 45.8341 2.46727 46.1063C1.75981 46.8966 2.57339 48.082 3.55499 47.6781C4.01484 47.4849 4.1917 47.1863 4.13864 46.6507C4.10327 46.2732 4.12096 46.1941 4.32435 46.0098C4.85495 45.5356 4.77536 45.5093 5.69505 46.4488C6.51748 47.2829 6.54401 47.3181 6.49095 47.6341C6.39367 48.2576 6.87121 48.8459 7.47255 48.8459C7.98546 48.8459 8.48952 48.3629 8.48952 47.88C8.48952 47.2654 7.87049 46.7561 7.26915 46.8702C6.96848 46.9229 6.93311 46.9054 6.08416 46.0624L5.21752 45.202L6.32293 44.1044L7.42833 42.9981L8.00314 43.2702L8.57796 43.5337V44.1571C8.57796 44.7717 8.56911 44.7893 8.22423 45.1405C7.95893 45.3951 7.87049 45.562 7.87049 45.7639C7.87049 46.3434 8.33034 46.8263 8.88747 46.8263C9.78064 46.8263 10.2228 45.6849 9.54187 45.1229C9.39153 45 9.23236 44.8946 9.18814 44.8946C9.14392 44.8946 9.10855 44.5873 9.10855 44.2098V43.5337L9.55071 43.3756C10.0725 43.1912 10.5146 42.8312 10.7446 42.401L10.9214 42.0849H13.8839V53.8946C13.8839 60.3922 13.8574 65.7044 13.822 65.7044C13.7778 65.7044 13.5125 65.5903 13.2118 65.4498ZM4.95222 20.8361V19.2556H8.48952V22.4166H10.3466V14.5141H8.48952V17.5873H4.95222V14.5141H3.09514V22.4166H4.95222V20.8361ZM31.3935 53.8946V42.0849H33.6663L33.7635 42.4185C33.9227 42.9541 34.4179 43.5161 34.9574 43.7971C35.32 43.9902 35.4614 44.1132 35.4968 44.2888C35.5233 44.4117 35.6472 44.6488 35.7798 44.8068C36.9294 46.159 40.0511 46.2029 41.2449 44.8859C41.4218 44.6927 41.5898 44.4205 41.6252 44.28C41.6606 44.0868 41.749 43.999 41.9612 43.9288C42.3857 43.7883 42.9871 43.2263 43.2435 42.7346C43.4646 42.3132 43.4646 42.2605 43.4911 39.9073L43.5176 37.5102L43.2081 37.2029C42.8809 36.8781 42.4918 36.8078 42.0585 37.0098C41.581 37.2205 41.5191 37.44 41.4925 39.0381L41.4572 40.5044H39.5293V38.2654C39.5293 35.8244 39.5028 35.6576 39.043 35.4117C38.7246 35.2449 38.2294 35.2712 37.9464 35.4732C37.5573 35.7717 37.5042 36.079 37.5042 38.3795L37.4954 40.5044H35.5676L35.5322 39.0381C35.5057 37.44 35.4438 37.2205 34.9662 37.0098C34.5417 36.8078 34.1438 36.8781 33.8166 37.2029L33.5159 37.5015V40.5044H31.3935V0.0263415H31.818C32.7819 0.0263415 34.1969 0.561951 35.4172 1.36976C35.7091 1.56293 36.5669 2.2039 37.3185 2.7922C40.4667 5.25073 41.4483 5.70732 44.0482 5.92683L45.2775 6.02341V27.6322C45.2775 49.399 45.2686 49.8644 44.9591 51.3571C43.9952 56.0283 40.113 60.7346 34.4003 64.1415C33.4275 64.721 31.5704 65.7044 31.4378 65.7044C31.4112 65.7044 31.3935 60.3922 31.3935 53.8946ZM35.1166 36.3776C35.4261 36.1493 35.5676 35.7015 35.4526 35.28C35.3376 34.8849 34.9574 34.6215 34.4887 34.6215C34.188 34.6215 34.0642 34.6741 33.8166 34.92C33.569 35.1659 33.5159 35.2888 33.5159 35.5873C33.5159 35.8859 33.569 36.0088 33.8166 36.2546C34.0642 36.5005 34.188 36.5532 34.4887 36.5532C34.7186 36.5532 34.9574 36.4829 35.1166 36.3776ZM43.0578 36.4302C43.5 36.202 43.6415 35.5346 43.3585 35.0605C43.1816 34.7532 42.8986 34.6215 42.4476 34.6215C41.8728 34.6215 41.4218 35.201 41.5456 35.8068C41.5633 35.9385 41.7048 36.1493 41.8463 36.2898C42.1469 36.5883 42.6333 36.641 43.0578 36.4302ZM39.0783 34.8498C39.3702 34.7005 39.5293 34.3756 39.5293 33.9541C39.5293 33.5063 39.0606 33.041 38.6096 33.041C38.0348 33.041 37.6104 33.3834 37.5661 33.8751C37.5396 34.2702 37.6015 34.4459 37.858 34.7005C38.1675 35.0078 38.645 35.0693 39.0783 34.8498ZM40.9708 22.1883C41.9259 21.7932 42.3503 21.1961 42.3592 20.2829C42.3592 19.4663 42.1027 18.9922 41.413 18.5532L41.0415 18.3161L41.298 18.1229C41.4483 18.0176 41.634 17.7893 41.7313 17.6049C42.3503 16.4107 41.7932 15.199 40.4579 14.7863C39.9184 14.6195 39.6443 14.602 37.4865 14.602H35.1077V22.4254L37.8314 22.399C40.3341 22.3727 40.5817 22.3551 40.9708 22.1883Z" fill="#1F3368"/>
<path d="M36.9648 20.081V19.159L38.4151 19.1854C39.7327 19.2117 39.8919 19.2293 40.1218 19.3961C40.449 19.642 40.5905 20.1512 40.4048 20.4673C40.1572 20.9239 39.8035 21.0117 38.3178 21.0117H36.9648V20.081ZM36.9648 16.8849V16.0068H38.1144C39.6885 16.0068 40.0599 16.1737 40.0599 16.8849C40.0599 17.5961 39.6885 17.7629 38.1144 17.7629H36.9648V16.8849ZM7.23376 48.2224C7.12764 48.1698 7.07458 48.0293 7.07458 47.8449C7.07458 47.5288 7.18955 47.441 7.56981 47.441C7.97659 47.441 8.0385 48.1171 7.64055 48.2664C7.45484 48.3366 7.41063 48.3278 7.23376 48.2224ZM2.84751 47.0722C2.67064 46.8966 2.7237 46.5805 2.96247 46.4224C3.16587 46.2907 3.20124 46.2907 3.40463 46.4224C3.79374 46.6771 3.65225 47.1776 3.18355 47.1776C3.05975 47.1776 2.90941 47.1337 2.84751 47.0722ZM8.57794 46.1239C8.35685 45.9044 8.35686 45.7551 8.56025 45.5707C8.7548 45.3951 9.02894 45.3776 9.17928 45.5268C9.3473 45.6937 9.31193 46.1064 9.11737 46.2117C8.86976 46.3346 8.78133 46.3259 8.57794 46.1239ZM37.345 45.2898C36.6376 45.079 35.9036 44.5346 35.9036 44.2273C35.9036 44.1922 36.1689 44.1834 36.5049 44.2098C37.345 44.2712 37.9641 44.6137 38.2559 45.1844L38.3885 45.4215L38.0525 45.4127C37.8668 45.4127 37.5484 45.36 37.345 45.2898ZM38.8219 45.2985C38.8219 45.0615 39.4763 44.4907 39.9273 44.3327C40.3871 44.1834 41.2095 44.1395 41.2095 44.2712C41.2095 44.3151 41.1123 44.4732 40.9885 44.6137C40.564 45.1142 38.8219 45.6673 38.8219 45.2985ZM38.3001 44.5785C38.1498 44.4117 37.8579 44.201 37.6634 44.1044L37.3097 43.92L37.6722 43.6566C37.8668 43.5161 38.1586 43.2176 38.309 43.0068L38.5831 42.6205L38.8307 43.0156C38.9722 43.2263 39.264 43.5161 39.4851 43.6566L39.8919 43.9112L39.4939 44.1044C39.2729 44.2098 38.981 44.4205 38.8395 44.5785L38.5831 44.8683L38.3001 44.5785ZM35.9036 43.6303C35.9036 43.5688 36.0539 43.3668 36.2308 43.1912C36.5845 42.8576 37.1859 42.5854 37.8314 42.48C38.2117 42.4185 38.2205 42.4185 38.1144 42.6117C37.9022 43.0068 37.3008 43.4898 36.8498 43.6215C36.2838 43.7883 35.9036 43.7883 35.9036 43.6303ZM40.2988 43.6303C40.1131 43.56 39.8301 43.4195 39.6709 43.3054C39.3525 43.0946 38.9369 42.5503 39.0253 42.4624C39.1226 42.3659 40.2192 42.7083 40.6083 42.9629C40.8205 43.0946 41.0593 43.3229 41.1477 43.481L41.3069 43.7532H40.9709C40.7851 43.7444 40.4845 43.6917 40.2988 43.6303ZM35.0635 43.4107C34.6832 43.1737 34.3383 42.7961 34.1792 42.4185L34.0465 42.0849L35.7886 42.0937C37.3716 42.0937 37.5042 42.1112 37.1682 42.2166C36.4076 42.4449 35.5499 43.121 35.5499 43.4722C35.5499 43.6215 35.3641 43.6039 35.0635 43.4107ZM41.5279 43.3405C41.2803 42.8576 40.6966 42.4537 39.9273 42.2078C39.6178 42.1112 39.7769 42.0937 41.3245 42.0937C42.2796 42.0849 43.0666 42.1112 43.0666 42.1376C43.0666 42.3571 42.5272 43.1122 42.2177 43.3229C41.749 43.639 41.6871 43.639 41.5279 43.3405ZM8.17106 42.8839C7.96766 42.7961 7.70237 42.5766 7.56972 42.4098C7.33979 42.12 7.10987 41.4966 7.18946 41.4176C7.25136 41.3473 7.82617 41.5844 8.10916 41.7863C8.41867 42.0146 8.7105 42.4449 8.79893 42.8137C8.87852 43.1034 8.7105 43.1298 8.17106 42.8839ZM8.97588 42.8137C9.06432 42.4449 9.35614 42.0146 9.66566 41.7863C9.93095 41.5932 10.5235 41.3473 10.5765 41.4088C10.6561 41.479 10.3908 42.1639 10.1963 42.4273C9.96633 42.7171 9.38267 43.042 9.07316 43.0507C8.94051 43.0507 8.92282 43.0068 8.97588 42.8137ZM1.52102 41.6283C1.353 41.4615 1.38837 41.0488 1.58292 40.9434C1.6802 40.8995 1.79516 40.8556 1.84822 40.8556C1.98971 40.8556 2.29923 41.1893 2.29923 41.3298C2.29923 41.6546 1.75979 41.8654 1.52102 41.6283ZM7.21608 41.0664C7.31335 40.6537 7.49022 40.3727 7.81742 40.0829C8.10924 39.8283 8.70174 39.6263 8.8167 39.7405C8.84323 39.7756 8.7548 40.0127 8.62215 40.2849C8.3657 40.8117 7.95006 41.1629 7.446 41.2595C7.16302 41.321 7.15417 41.3122 7.21608 41.0664ZM9.92211 41.1103C9.71872 41.0049 9.4711 40.8117 9.37383 40.6712C9.15275 40.3727 8.90514 39.802 8.96704 39.7405C9.07316 39.6263 9.6745 39.8371 9.95748 40.0829C10.2847 40.3727 10.4615 40.6537 10.5588 41.0576C10.6296 41.3561 10.4615 41.3737 9.92211 41.1103ZM11.4784 37.7737C11.2927 37.6683 11.2662 37.2556 11.4254 37.0976C11.4873 37.0361 11.6465 36.9922 11.7791 36.9922C12.2213 36.9922 12.3097 37.6595 11.8852 37.8176C11.6995 37.8878 11.6553 37.879 11.4784 37.7737ZM5.96918 35.9385C5.75694 35.7015 5.85421 35.3415 6.16373 35.2712C6.4644 35.1922 6.66779 35.3239 6.70317 35.64C6.75623 36.0703 6.26985 36.2722 5.96918 35.9385ZM1.91012 35.1834C1.73326 35.0166 1.72442 34.6742 1.89244 34.5424C2.11352 34.3581 2.50262 34.4634 2.5999 34.7268C2.75023 35.1659 2.22848 35.5083 1.91012 35.1834ZM8.59562 32.2332C8.53372 32.1717 8.4895 32.0224 8.4895 31.882C8.4895 31.4429 9.07316 31.3376 9.29424 31.7327C9.49763 32.1103 8.90514 32.5405 8.59562 32.2332Z" fill="#1F3368"/>
<path d="M21.4449 71.3151C19.3579 70.1912 17.6158 69.0585 16.2539 67.9259L15.5641 67.3551V41.8829L16.2716 41.9444C18.9511 42.1639 21.1442 44.0693 21.6748 46.6332L21.7898 47.1776H22.6564C23.5142 47.1776 23.5231 47.1776 23.5231 46.9668C23.5231 46.2907 24.204 44.7981 24.9026 43.9551C25.7958 42.8751 27.3876 42.0849 28.9617 41.9444L29.6249 41.8829V67.399L29.1651 67.8381C28.0508 68.8654 26.1495 70.1034 23.8591 71.28L22.5945 71.9298L21.4449 71.3151ZM18.8362 59.9532V58.241H18.1729C17.5273 58.241 17.5097 58.2498 17.5097 58.4605C17.5097 58.6624 17.545 58.68 17.8634 58.68H18.2171V61.6654H18.8362V59.9532ZM21.383 61.4107C22.1701 60.8576 22.3115 59.3473 21.6306 58.6185C20.7198 57.6351 18.9865 58.4781 19.4817 59.6722C19.7382 60.2693 20.5252 60.5151 21.1619 60.1903L21.4891 60.0146V60.2342C21.4891 60.9454 20.6932 61.4195 19.9592 61.1473C19.7735 61.0771 19.7293 61.0946 19.6409 61.279C19.5613 61.4722 19.5701 61.5073 19.747 61.5776C19.8531 61.6215 20.198 61.6566 20.5164 61.639C20.9585 61.6215 21.1619 61.5688 21.383 61.4107ZM24.2659 60.1551C24.6373 59.321 24.938 58.5307 24.938 58.399V58.1532H22.3735V59.2946H22.6387C22.8864 59.2946 22.904 59.2683 22.904 58.9873V58.68H23.6115C24.0006 58.68 24.319 58.6976 24.319 58.7239C24.319 58.7503 24.0448 59.3912 23.6999 60.1376C23.3639 60.8927 23.0809 61.5425 23.0809 61.5864C23.0809 61.6303 23.1959 61.6654 23.3285 61.6654C23.5761 61.6654 23.6115 61.5951 24.2659 60.1551ZM27.4229 61.4634C27.8121 61.2 27.9624 60.9103 27.9093 60.4888C27.8209 59.7512 26.8924 59.321 26.1672 59.681C26.008 59.76 25.8665 59.8039 25.84 59.7864C25.725 59.6634 25.9461 59.1015 26.2026 58.8907C26.459 58.68 26.5298 58.6624 27.0338 58.7063C27.5202 58.7415 27.6087 58.7239 27.6794 58.5834C27.8032 58.3551 27.4937 58.2146 26.8835 58.2146C26.0346 58.2146 25.4686 58.6712 25.3006 59.4878C25.1856 60.0146 25.2917 60.7698 25.5217 61.1122C25.8842 61.6742 26.8481 61.8498 27.4229 61.4634ZM21.2061 46.6332C20.8613 45.1054 19.6851 43.6215 18.279 42.9366C17.6158 42.6117 16.8376 42.3746 16.7403 42.4712C16.643 42.559 16.9702 43.4898 17.3151 44.1044C17.7042 44.8068 18.8627 45.9834 19.5613 46.3785C20.083 46.6683 20.8966 46.9844 21.1442 46.9932C21.2769 47.002 21.2857 46.9493 21.2061 46.6332ZM24.9115 46.7473C26.2556 46.2205 27.4318 45.1317 28.0773 43.7971C28.2896 43.3668 28.493 42.8751 28.5195 42.7259C28.5726 42.4712 28.5549 42.4361 28.3957 42.4361C28.2984 42.4361 27.9535 42.5327 27.644 42.6468C25.8312 43.2966 24.4339 44.8859 24.0183 46.7649C23.9476 47.0722 24.0802 47.0722 24.9115 46.7473Z" fill="#A71B29"/>
<path d="M20.2333 59.7688C19.9061 59.6019 19.8619 59.1366 20.136 58.838C20.3129 58.6361 20.9319 58.6273 21.206 58.8205C21.489 59.0136 21.4713 59.4878 21.1707 59.7248C20.8965 59.9356 20.5693 59.9531 20.2333 59.7688ZM26.2291 61.0419C25.9461 60.8224 25.9196 60.4273 26.176 60.1727C26.4502 59.9005 27.078 59.9268 27.3168 60.2253C27.5556 60.5327 27.5467 60.7434 27.2814 61.0068C27.0161 61.279 26.5563 61.2966 26.2291 61.0419ZM22.506 44.4819C22.2584 43.1034 20.6401 41.4966 19.2517 41.2507C18.8449 41.1717 18.8979 41.1102 19.5523 40.917C20.9142 40.5044 22.2672 39.0644 22.506 37.7648C22.5767 37.3697 22.6828 37.3961 22.7624 37.8175C22.7978 37.9844 22.957 38.397 23.125 38.7307C23.6291 39.7317 24.6814 40.6097 25.778 40.9346C25.9725 40.9961 26.1936 41.0663 26.2644 41.0927C26.3351 41.119 26.1848 41.1892 25.9195 41.2595C24.5399 41.6195 23.2488 42.8488 22.842 44.1834C22.6475 44.8331 22.5856 44.8858 22.506 44.4819Z" fill="#A71B29"/>
<path d="M15.5641 25.0508V9.77271H29.6249V40.3551L28.9086 40.3025C27.4583 40.1883 25.9727 39.4595 24.9822 38.3708C24.3897 37.721 23.8237 36.641 23.6115 35.7454L23.4612 35.1044H21.8163L21.6306 35.8069C21.1442 37.6244 20.0565 38.959 18.4382 39.7229C17.6954 40.0742 16.6519 40.3288 15.9621 40.3288H15.5641V25.0508ZM17.66 39.5825C19.3402 38.9854 20.7374 37.4664 21.1708 35.763C21.3211 35.1659 21.2769 35.1483 20.4898 35.4469C18.6858 36.123 17.2532 37.6859 16.7315 39.5561C16.643 39.8898 16.643 39.8898 16.8729 39.8371C17.0056 39.802 17.3593 39.6878 17.66 39.5825ZM28.5195 39.5649C28.4841 39.3893 28.3515 38.9942 28.21 38.6956C27.6263 37.4137 26.6624 36.3864 25.4686 35.7717C24.7965 35.4293 24.089 35.1747 24.0095 35.2537C23.9299 35.3327 24.2394 36.3249 24.5047 36.8517C25.221 38.2478 26.4856 39.2839 27.9889 39.7229C28.2807 39.8108 28.5372 39.881 28.5549 39.881C28.5726 39.8898 28.5549 39.7405 28.5195 39.5649ZM24.4339 22.1708C25.3978 21.6966 25.9815 20.8712 26.1672 19.6947C26.2203 19.3786 26.2645 18.0878 26.2645 16.8234V14.5142H24.4251L24.3986 17.0869C24.3632 19.6332 24.3632 19.6595 24.1421 20.0898C23.8503 20.6342 23.3551 20.9239 22.6741 20.9239C21.8782 20.9239 21.4272 20.6517 21.1266 20.002C20.9762 19.6859 20.9585 19.3873 20.9585 17.0869V14.5142H19.013V16.9112C19.013 19.5015 19.0926 20.1161 19.4817 20.8976C19.8443 21.6 20.6402 22.2059 21.4626 22.4166C21.6483 22.4605 22.2585 22.4869 22.8245 22.4781C23.7795 22.4517 23.8945 22.4342 24.4339 22.1708Z" fill="#A71B29"/>
</g>
<defs>
<clipPath id="clip0_99_22">
<rect width="50" height="72" fill="white"/>
</clipPath>
</defs>
</svg>
