<svg width="24" height="24" viewBox="0 0 24 24" fill="none" xmlns="http://www.w3.org/2000/svg">
<path d="M12.8711 6.32593C14.071 6.52702 15.1609 7.09374 16.0311 7.96211C16.9012 8.83047 17.4645 9.91821 17.6706 11.1156M13.0543 2.39999C15.1884 2.76105 17.1348 3.7711 18.6827 5.3113C20.2307 6.85608 21.2382 8.79847 21.6 10.9282M19.933 19.4017C19.933 19.4017 18.7743 20.5397 18.4903 20.8733C18.0278 21.3669 17.4828 21.6 16.7684 21.6C16.6997 21.6 16.6264 21.6 16.5577 21.5954C15.1975 21.5086 13.9336 20.9784 12.9856 20.526C10.3934 19.2737 8.11734 17.4958 6.22592 15.2426C4.66424 13.3642 3.62007 11.6275 2.92854 9.76281C2.50263 8.62479 2.34692 7.73815 2.41561 6.90178C2.46141 6.36705 2.6675 5.92372 3.04761 5.54439L4.60929 3.9859C4.83369 3.77566 5.07184 3.6614 5.3054 3.6614C5.59392 3.6614 5.82749 3.83508 5.97404 3.98133C5.97862 3.9859 5.9832 3.99047 5.98778 3.99504C6.26714 4.25555 6.53276 4.5252 6.81212 4.81313C6.95409 4.95938 7.10064 5.10563 7.24719 5.25645L8.49745 6.50416C8.9829 6.98861 8.9829 7.43651 8.49745 7.92096C8.36464 8.0535 8.23641 8.18604 8.1036 8.31401C7.7189 8.70706 8.0211 8.40548 7.62267 8.76196C7.61351 8.7711 7.60435 8.77567 7.59977 8.78481C7.20592 9.17786 7.27919 9.56177 7.36163 9.82228C7.3662 9.83599 7.37078 9.8497 7.37536 9.86341C7.70052 10.6495 8.15849 11.3899 8.85461 12.272L8.85919 12.2766C10.1232 13.8305 11.4559 15.0416 12.926 15.9694C13.1137 16.0882 13.3061 16.1842 13.4893 16.2756C13.6541 16.3579 13.8098 16.4356 13.9426 16.5178C13.961 16.527 13.9793 16.5407 13.9976 16.5498C14.1533 16.6275 14.2999 16.6641 14.451 16.6641C14.8311 16.6641 15.0693 16.4264 15.1471 16.3487L16.0448 15.4529C16.2005 15.2975 16.4478 15.1101 16.7363 15.1101C17.0203 15.1101 17.2538 15.2883 17.3958 15.4437C17.4004 15.4483 17.4004 15.4483 17.405 15.4529L19.9284 17.9711C20.4001 18.4373 19.933 19.4017 19.933 19.4017Z" stroke="#333333" stroke-width="1.5" stroke-linecap="round" stroke-linejoin="round"/>
</svg>
