<svg width="23" height="22" viewBox="0 0 23 22" fill="none" xmlns="http://www.w3.org/2000/svg">
<path d="M7.70497 9.40236C7.70497 8.29779 6.80954 7.40236 5.70497 7.40236H2.75C1.64543 7.40236 0.75 8.29779 0.75 9.40236V14.0177V18.7051C0.75 19.8097 1.64543 20.7051 2.75 20.7051H7.70497H12.5869C13.6915 20.7051 14.5869 19.8097 14.5869 18.7051V16.0177C14.5869 14.9131 13.6915 14.0177 12.5869 14.0177H9.70497C8.6004 14.0177 7.70497 13.1222 7.70497 12.0177V9.40236Z" stroke="#333333" stroke-width="1.5" stroke-miterlimit="10"/>
<path d="M14.593 0.75H9.71309C8.60852 0.75 7.71309 1.64543 7.71309 2.75V5.43747C7.71309 6.54204 8.60852 7.43747 9.71309 7.43747H12.593C13.6976 7.43747 14.593 8.3329 14.593 9.43747V12.0547C14.593 13.1593 15.4884 14.0547 16.593 14.0547H19.55C20.6546 14.0547 21.55 13.1593 21.55 12.0547V7.43747V2.75C21.55 1.64543 20.6546 0.75 19.55 0.75H14.593Z" stroke="#333333" stroke-width="1.5" stroke-miterlimit="10"/>
</svg>
